<?xml version="1.0" encoding="UTF-8"?>
<svg width="200px" height="200px" viewBox="0 0 200 200" version="1.1" xmlns="http://www.w3.org/2000/svg" xmlns:xlink="http://www.w3.org/1999/xlink">
    <!-- Generator: Sketch 54.1 (76490) - https://sketchapp.com -->
    <title>rhode-island-col</title>
    <desc>Created with Sketch.</desc>
    <g id="rhode-island-col" stroke="none" stroke-width="1" fill="none" fill-rule="evenodd">
        <g id="rhode-island-col_BGL">
            <g id="rhode-island-col" transform="translate(0.000000, 30.000000)">
                <g id="g10" transform="translate(99.999998, 69.681320) scale(-1, 1) rotate(-180.000000) translate(-99.999998, -69.681320) translate(0.000000, 0.084252)" fill-rule="nonzero">
                    <g id="g12">
                        <path d="M124.399997,63.7487164 C124.556041,64.5164819 125.032598,66.8553097 125.12637,67.3146503 C125.198532,67.4080569 125.732964,68.0945038 125.732964,68.0945038 L125.462634,68.7908408 C125.094136,69.739925 123.7304,72.3967015 121.755308,74.1516465 C121.911719,74.0904743 122.066297,74.0439542 122.221609,73.9959688 C123.59377,72.9556758 125.17692,72.6142839 126.615015,73.0908407 L126.615015,73.091207 C127.628202,73.4271044 128.387176,74.2395586 128.890839,75.2355293 C131.064466,71.9798517 132.745784,68.6999983 133.853843,65.4527456 C133.853843,65.4527456 134.420509,63.7912072 134.439923,63.7351632 C130.127103,63.7406577 125.046883,63.7476175 124.399997,63.7487164 L124.399997,63.7487164 Z M72.6684964,63.6699618 C71.9483498,63.6699618 67.8853463,63.6699618 64.1923061,63.6699618 C68.4597052,67.1003646 71.1421228,71.1923059 71.2816832,71.4080568 L72.8560421,73.8432216 L69.9853462,73.4289359 C69.8296686,73.4065916 54.2930389,71.2238077 44.6930392,74.9941373 C44.6930392,74.9941373 44.2959696,75.1501813 44.1567755,75.20476 C47.97216,80.5945035 54.226006,88.7201443 60.2139179,93.4468841 C63.4109874,90.0934043 64.4948702,88.1827817 64.5058592,88.1622689 L64.7252731,87.7630015 L65.1468848,87.579485 C66.8824159,86.839192 68.7183133,87.0062249 70.1835147,88.038093 C70.7988993,88.4714264 71.3109872,89.0168476 71.7113535,89.6553091 C73.024174,86.2630015 74.5003644,84.1644668 77.308423,83.4102543 C77.3234413,79.318313 78.6619028,76.493771 80.243954,74.1102546 C78.3688625,71.3197784 74.8435879,66.1805844 72.6684964,63.6699618 L72.6684964,63.6699618 Z M74.7959688,98.9630012 C73.9329652,97.5205104 73.1282033,96.006591 72.3937711,94.4241735 C72.3421227,94.4864445 70.8336979,96.2996313 69.3498151,98.083514 C71.0091557,97.9717924 72.9311337,98.128569 74.7959688,98.9630012 L74.7959688,98.9630012 Z M190.993036,62.9626358 C189.227468,63.4487164 186.859336,63.660438 183.073988,63.6688629 C183.072523,63.6688629 166.207688,63.6919398 166.207688,63.6919398 C166.093402,63.8520131 163.414648,67.5036613 157.924538,68.9684964 C157.574721,69.4890093 157.135527,70.0915733 156.683879,70.576555 L156.093769,71.2109872 L155.242487,71.3717931 C155.132963,71.3926722 154.990472,71.4252729 154.864465,71.4512803 C154.824538,71.7454195 154.624905,73.2084231 154.624905,73.2084231 C154.540655,73.8245403 153.482414,79.3904742 142.798165,91.7234409 C147.111352,92.7761882 151.996333,94.8677632 154.507688,99.0373602 L155.279483,100.319411 L154.945417,100.972525 C151.450546,107.787543 145.215747,110.878752 141.26996,110.679118 C139.999264,111.640657 138.559703,112.668862 137.092671,113.591206 C137.122707,113.752012 137.141389,113.915748 137.141389,114.080217 C137.141389,114.542122 137.016846,115.009887 136.780583,115.448715 C136.793403,115.536261 136.812084,115.657873 136.812084,115.657873 C136.812084,115.660803 136.890106,116.341755 136.962268,116.968495 C139.148714,117.443587 140.831498,118.7304 141.758605,120.676187 C142.251645,121.709521 142.501095,122.749081 142.501095,123.765198 C142.501095,125.680583 141.218311,128.054576 139.518678,129.287543 L138.149813,130.27985 L137.520509,128.710619 C137.444685,128.523074 137.339557,128.285711 137.220509,128.033696 C136.303293,129.310619 135.027835,130.308788 133.474722,130.927836 C133.505491,131.14322 133.546151,131.351645 133.546151,131.584246 C133.546151,132.175088 133.423806,132.809887 133.054575,133.431865 C132.396334,134.541022 131.074356,135.315381 129.072524,135.815015 C128.870693,135.981682 128.589008,136.213916 128.589008,136.213916 C127.213916,137.353843 126.127836,138.254209 124.473257,138.900729 L124.209887,139.00366 L123.927103,138.989374 C122.012085,138.892304 117.78681,138.372524 115.499997,137.099264 L115.00366,136.823074 C115.00366,136.823074 114.940656,136.575088 114.901462,136.417579 C113.178752,135.655674 111.578752,134.810619 111.50366,134.771059 L111.291939,134.658238 L111.133331,134.478019 C111.075089,134.412451 109.795235,132.95018 108.974723,131.57692 C106.774723,130.063 105.426371,127.719044 105.087177,124.756773 C105.087177,124.756773 105.079118,124.692305 105.077653,124.679484 C95.6245397,126.001096 77.4981666,127.258605 65.2325991,120.116481 C65.2325991,120.116481 62.7219765,118.682048 60.4446871,116.429301 C59.5454198,117.252378 58.190841,118.07692 56.2739913,118.301462 C55.3945041,119.460437 53.8725261,121.015748 51.8208778,121.402927 C51.2047606,121.519411 50.3139182,121.558971 49.3080574,121.239557 C47.7157497,122.264832 44.2710612,123.708422 40.2523799,120.864832 C37.8102555,120.394869 35.7069954,119.226004 34.017142,117.345785 L33.6196329,116.903294 L33.7019405,116.196334 C34.1051274,112.616481 35.7012812,111.031133 36.9692298,110.331499 C39.0476181,109.184246 41.0516473,110.026737 42.014651,110.431133 L42.8776546,110.786444 C42.8776546,110.786444 42.9095227,110.879851 42.9278378,110.934063 C43.8366289,111.045785 44.9388267,111.38681 46.0912076,112.089374 C46.7296692,111.997799 47.5238083,111.976188 48.4168486,112.126371 C48.8659328,111.625638 49.4388266,111.123074 50.1538449,110.692671 C50.0098889,110.612818 49.8644676,110.543953 49.7238083,110.448715 C47.8988999,109.219045 47.2739915,107.008789 47.2739915,105.234063 C47.2739915,104.995968 47.2853468,104.765931 47.3062259,104.54725 L47.3670318,103.916481 L47.897801,103.569961 C47.9216105,103.55421 49.5956032,102.459704 50.930768,101.560803 C47.1315007,98.2494481 39.9117206,91.3190453 32.1392666,80.6212434 L31.3872153,81.85128 L29.9341751,85.528203 C28.0030762,90.416115 25.7523437,97.6380928 28.4918674,103.887909 L29.5821971,106.376188 L26.9525634,105.693404 C26.8119041,105.65714 12.8609887,101.885712 11.2615748,88.4494483 L11.0150547,86.3780198 L12.9927836,87.0439539 C13.5345052,87.2267377 14.3119044,87.43443 14.9858238,87.5564081 C15.6111351,81.2032947 18.4021607,75.0630018 20.575201,71.1135513 C17.6289373,71.1135513 10.1453844,71.1135513 10.1453844,71.1135513 L0,23.383113 L33.8769222,23.3920141 C33.3472153,23.0996698 32.830512,22.7578383 32.3308783,22.3546148 C30.6868124,21.0186442 29.6530029,19.3728567 29.0742484,17.1724904 L29.0527832,17.0864831 L28.3626733,13.8832231 C27.4808418,9.79739902 27.4639554,9.71941368 27.4639554,8.84216095 C27.4639554,4.61725263 30.400219,0.126345052 35.8421969,0.126345052 L153.88571,0 C157.14615,0 161.495967,1.91277651 163.032597,7.30439542 C163.032597,7.30655659 163.056406,7.38868113 163.056406,7.38868113 L164.424172,13.7508421 C164.61941,14.763333 164.673256,15.7490472 164.598164,16.6915747 L168.870692,16.6915747 L170.179849,23.4256404 L180.935527,23.4286441 C185.851277,23.4286441 191.906589,24.2659701 195.119775,30.7978381 C195.808054,32.19923 196.36886,34.0549076 196.995599,37.0040284 L198.772523,45.3626362 C199.53809,48.967398 199.714281,51.5058595 199.714281,51.7641013 C199.714281,57.1036616 196.290838,61.4992659 190.993036,62.9626358 L190.993036,62.9626358 Z" id="path14" fill="#FFFFFF"></path>
                        <path d="M150.136993,61.0761889 C150.130033,61.0999985 150.123439,61.1230754 150.116113,61.1468849 C150.116113,61.1468849 154.206223,62.1102549 157.235527,62.0725259 C157.235527,62.0725259 158.302926,61.6571413 159.31941,61.0637347 L150.136993,61.0761889 Z M121.172158,61.1153831 L122.665198,68.4465184 C122.672524,68.4564085 122.680949,68.4662987 122.688275,68.4761888 C122.688275,68.4761888 121.399631,71.2673975 119.396334,72.6988993 C119.396334,72.6988993 117.320144,73.5146502 115.315015,73.5509139 C115.315015,73.5509139 117.606224,74.7743571 118.322708,75.6333314 C118.322708,75.6333314 119.249081,78.4329651 119.394136,79.0732581 C119.394136,79.0732581 121.488275,76.723075 123.448715,76.3930384 C123.448715,76.3930384 124.587543,75.197434 125.785345,75.5945036 C126.982781,75.9915732 127.623806,79.7014632 126.052012,80.2857123 C125.525638,80.4809504 125.167762,80.5421225 124.920876,80.5384595 C124.245418,81.5054925 122.397799,83.8366279 120.017579,84.2882763 C120.150546,84.9120858 120.332964,86.0325986 120.218312,87.1135509 C120.595601,87.2754557 121.062634,87.5241736 121.451279,87.8739905 C124.227103,85.3923056 132.62344,77.2311336 136.349813,66.3040276 L139.330399,67.9648335 C139.330399,67.9648335 140.027835,66.9879104 140.412817,66.2113537 C139.965198,65.3578738 139.523073,63.6186797 141.455308,61.4117201 C141.55604,61.2963355 141.658605,61.1897421 141.76007,61.0875443 L121.172158,61.1153831 Z M73.8783864,91.2761882 C73.8783864,91.2761882 74.7835146,88.0791187 76.7630017,86.4728916 C76.7630017,86.4728916 78.4205109,85.7747231 80.0655658,85.5347964 C79.7893753,83.2882763 79.7300346,78.8018295 82.7344302,75.1344304 C82.7344302,75.1344304 82.9857122,74.7468846 83.447617,74.1586062 C81.4813166,71.1897418 76.3179468,63.5219764 73.8304011,61.0325992 L54.6648338,61.0325992 C58.3644674,62.7776541 64.0721596,66.0040277 67.3615368,70.5084231 C67.3615368,70.5084231 54.622343,69.1919397 47.3934054,71.4106209 C47.3934054,71.4106209 49.0139182,69.0113536 51.4300353,67.2875441 C48.0593395,67.1490826 41.8699623,67.5051265 38.4468855,71.4820495 C38.4468855,71.4820495 50.1223431,89.9384593 60.4831487,96.9329646 C62.0402915,95.4131844 65.3014636,92.1043933 66.5582401,89.8897413 C68.5395587,89.2498146 70.0263719,91.1355289 70.087544,93.0765544 C70.087544,93.0765544 66.3051265,97.6728913 64.1967017,100.129302 L65.9293024,101.471792 C67.3934049,100.923074 71.991207,99.5494481 75.3787527,102.401829 C79.4578735,105.83736 77.0963351,109.487543 77.0963351,109.487543 C77.0963351,109.487543 77.5238076,109.751279 77.9109871,110.211353 C78.9974339,110.097067 81.1289357,110.242854 83.1304009,112.533697 C83.1304009,112.533697 87.4098879,110.495968 90.2512798,112.887177 C89.5501809,112.325272 78.7959687,103.567763 73.8783864,91.2761882 L73.8783864,91.2761882 Z M190.291204,60.4205113 C188.76886,60.8395589 186.597431,61.0230754 183.068127,61.0315003 L163.576919,61.0578739 C163.773989,61.3560424 163.942853,61.7172146 164.063,62.1575076 C164.063,62.1575076 161.574721,65.6355295 156.267395,66.6622694 C156.267395,66.6622694 155.469227,68.010621 154.75311,68.7802181 C154.75311,68.7802181 149.485344,69.7706942 147.789007,71.4494488 C147.789007,71.4494488 150.343952,72.4315 152.011352,72.8512802 C152.011352,72.8512802 151.193037,78.8490823 137.677652,93.5054922 C140.077286,93.7413896 148.979483,94.969961 152.248348,100.3978 C152.248348,100.3978 150.458971,103.618679 148.383513,105.550913 C148.383513,105.550913 150.315747,100.898899 145.735161,98.250547 C141.154209,95.6025617 136.502194,95.5304005 136.502194,95.5304005 C136.502194,95.5304005 135.786077,96.6043932 134.927835,97.3915727 C134.927835,97.3915727 142.156407,97.8930378 144.231865,101.757507 C144.231865,101.757507 144.017213,102.831133 143.731132,103.546884 C143.731132,103.546884 142.800363,102.473258 141.511718,102.187177 C141.511718,102.187177 141.512451,103.260803 140.939557,104.119411 C140.939557,104.119411 138.125638,99.4948693 133.885345,99.072525 C134.439191,99.742122 135.276187,100.870693 135.64322,101.972159 C135.64322,101.972159 134.426737,103.046151 132.780583,103.404027 C132.780583,103.404027 139.810619,105.268862 143.882048,105.158972 C143.882048,105.158972 137.838824,110.527836 132.947249,112.906224 C132.947249,112.906224 133.742121,113.553843 134.478385,114.025272 C134.478385,114.025272 134.868861,114.277287 132.750546,115.461169 C132.750546,115.461169 132.968861,115.866297 133.139191,116.298532 C133.468129,116.256407 133.869594,116.181316 134.202927,116.043221 C134.202927,116.043221 134.426737,117.556774 134.547249,119.417213 C135.494136,119.339191 138.204392,119.347982 139.378385,121.81062 C140.328568,123.804759 139.666663,125.213916 139.111352,125.939191 C138.761535,125.058971 137.93333,123.727469 136.105125,123.632964 C136.105125,123.632964 136.01355,128.572891 130.048348,129.024173 C130.048348,129.024173 130.943586,130.245784 130.873257,131.960436 C130.873257,131.960436 130.506224,132.887542 127.836993,133.407689 C126.726004,134.373989 124.790839,135.979117 123.803294,136.338458 C123.803294,136.338458 119.579484,136.061535 117.263733,135.008788 L117.131499,134.488641 C117.131499,134.488641 115.228202,133.780583 112.953111,132.555674 C112.953111,132.555674 111.588276,131.015748 110.958605,129.720876 C110.958605,129.720876 108.368862,128.460803 107.843587,125.276187 C107.843587,125.276187 110.827836,123.490473 112.135528,121.548349 C111.869961,121.128935 111.759338,120.976554 111.691206,120.835528 C106.877653,121.894869 86.9761883,125.689008 70.9988993,120.039924 C70.9988993,120.039924 77.837727,120.061902 85.5974338,116.914649 C85.5974338,116.914649 83.0534778,117.415748 80.6446866,115.611352 C80.6446866,115.611352 77.8699614,116.054942 75.6087893,114.261902 C75.6087893,114.261902 74.1102546,116.599264 71.3999982,115.543953 C71.3999982,115.543953 70.7919396,116.534063 67.7802181,115.908788 C67.7802181,115.908788 63.6871779,117.477653 62.8073244,111.835162 C62.8073244,111.835162 62.1205113,113.165199 59.7512806,112.945785 C59.7512806,112.945785 58.6714271,116.012451 54.8161158,115.733697 C54.8161158,115.733697 52.1054932,120.722341 48.9761893,118.088275 C48.9761893,118.088275 45.6776545,121.936993 41.3010979,118.382781 C41.3010979,118.382781 38.3472518,118.116481 36.3862262,116.018312 C36.3862262,116.018312 37.0391932,111.021975 40.7325997,112.727103 C40.7325997,112.727103 40.8882774,113.275089 41.3498158,113.568862 C41.3498158,113.568862 43.3908414,113.060803 45.5564091,114.910986 C45.5564091,114.910986 47.5153834,114.108422 49.4937717,115.235895 C49.4937717,115.235895 50.5630024,112.386078 54.0293027,112.215382 C54.0293027,112.215382 54.8937715,110.087177 58.2457861,109.384979 C58.2457861,109.384979 59.4014637,107.72051 61.1186798,107.666664 C61.1186798,107.666664 60.6736249,106.709521 61.1300351,105.882781 L59.4340644,104.653844 C59.4340644,104.653844 54.9758228,108.182415 53.3941379,108.778386 C53.3941379,108.778386 49.9377277,109.204027 49.9377277,105.396701 C49.9377277,105.396701 54.4838814,102.498899 55.1652001,101.646518 C55.1652001,101.646518 43.3853469,92.7391918 31.3910981,74.9769212 C31.3910981,74.9769212 23.3243218,82.3626353 23.3446514,89.3036608 C23.3446514,89.3036608 25.1339188,89.3036608 26.27934,88.0157487 C26.27934,88.0157487 23.2015379,95.1728914 25.2774353,102.258972 C25.2774353,102.258972 15.9012817,98.7512796 14.2550912,90.0912065 C14.2550912,90.0912065 15.645604,90.467397 17.4437725,90.1725252 C17.9381314,79.4003643 22.3330031,74.0362619 25.0249078,68.4531118 C24.2839921,68.4681302 23.4626734,68.4761888 22.5462265,68.4761888 L12.2809521,68.4761888 L3.2567838,26.0216477 L180.934794,26.0655671 C182.847248,26.0655671 184.285343,26.1805854 185.460069,26.4274352 C188.1956,27.0021971 191.094134,28.5883143 192.753109,31.9615743 C193.339556,33.1556036 193.836991,34.8278746 194.415746,37.55238 L196.193035,45.9109879 C196.920508,49.3355299 197.044317,50.6545775 197.070691,51.4245408 C197.209519,55.5113539 194.778383,59.1809509 190.291204,60.4205113 L190.291204,60.4205113 Z" id="path16" fill="#8E0A26"></path>
                        <path d="M79.1893753,64.5113537 L76.9219761,61.1300351 C77.7131849,61.2032952 80.3131848,61.1336981 83.213551,61.0325992 L90.5901076,61.0325992 C90.5948695,61.1234417 90.5999977,61.1754563 90.5999977,61.1754563 C90.1358952,62.7578739 90.2937706,64.2208775 90.5465179,65.2523793 C90.6765545,65.7706943 90.8223421,66.1981668 90.9582395,66.5395588 C90.5190454,67.2457859 90.2534776,68.1402913 90.0956021,68.8952364 C89.5476168,69.1010972 89.0216095,69.3531118 88.5208769,69.6358957 C85.7886425,69.4450532 81.147617,68.5124525 79.1893753,64.5113537" id="path18" fill="#FFFFFF"></path>
                        <path d="M91.5912065,29.7652007 L77.0468845,29.7652007 L77.3699614,31.2834791 C77.3293021,31.2538454 77.290108,31.2219406 77.248716,31.1934791 C76.4608039,30.6461897 75.5476172,30.2608417 74.5358956,30.047948 C73.6304011,29.8574718 72.3992656,29.7652007 70.7721594,29.7652007 L60.6593391,29.7652007 L61.1344307,32.0000725 L61.1362622,32.0073618 C59.1582403,30.1362264 56.5190462,29.2641018 53.6985335,29.2641018 C50.9296691,29.2641018 48.1333321,30.146959 46.7479842,32.6718307 L46.1300355,29.7652007 L7.82553094,29.7212813 L15.2767395,64.7761889 L22.5462265,64.7761889 C24.0461899,64.7761889 25.3561532,64.7538445 26.4850909,64.7087896 C26.3043583,65.3472511 26.0901825,65.9692291 25.848644,66.5816833 C24.9157137,66.6095221 23.8272522,66.6260057 22.5462265,66.6260057 L13.7790473,66.6260057 L5.54113539,27.8710249 L93.089375,27.9153839 L98.5036605,55.0728924 C97.8633675,54.9380939 97.2076899,54.8652001 96.5520122,54.8717935 L91.5912065,29.7652007" id="path20" fill="#BF9206"></path>
                        <path d="M34.7740651,61.0208776 C35.2512445,60.0483501 35.4630394,58.8271048 35.4139552,57.3325993 L51.9897423,57.3325993 L51.5146507,55.0981671 L51.5051269,55.0523796 C53.4761891,56.9406579 56.1347971,57.8336982 58.9849802,57.8336982 C61.9234417,57.8336982 64.5747237,56.8556762 65.9102548,54.4695957 L66.519046,57.3325993 L72.660804,57.3325993 C76.9139175,57.3325993 78.3988991,57.0589729 79.1457856,56.8534784 C80.5827819,56.4567751 81.6498148,55.744321 82.3179467,54.7355298 C82.3278368,54.7208778 82.9065913,57.3325993 82.9065913,57.3325993 L91.5366277,57.3325993 C91.1347963,57.9479839 90.8999977,58.5963355 90.7633677,59.1827824 L37.1941383,59.1827824 C37.0736254,60.1695956 36.8216108,61.0479838 36.4345778,61.8369948 C36.3050907,62.100731 36.1641383,62.3523794 36.0139185,62.5945039 C35.3328196,62.7428556 34.7475815,62.8747237 34.295457,62.9648336 C33.9265559,63.0388263 33.5473984,63.0743574 33.1650541,63.082416 C33.8239918,62.5413904 34.3667024,61.8505479 34.7740651,61.0208776" id="path22" fill="#BF9206"></path>
                        <path d="M123.124539,57.8336982 C126.18388,57.8336982 129.195601,56.8600718 130.368861,54.5849803 L130.952744,57.3325993 L140.941755,57.3325993 L136.883513,38.241391 L139.932231,38.241391 L145.697066,54.9637349 C146.081315,56.5999986 145.425271,58.1703282 144.82344,59.1827824 L129.455308,59.1827824 L129.252011,58.2278374 C128.276187,58.7996322 126.401828,59.683515 123.124539,59.683515 C121.565565,59.683515 120.109155,59.4666652 118.775455,59.0446872 L120.219777,65.8399251 C119.480949,65.1780203 118.705125,64.5622694 117.937726,64.0029288 L116.143953,55.5637349 C117.770327,56.9457861 120.146883,57.8336982 123.124539,57.8336982" id="path24" fill="#BF9206"></path>
                        <path d="M150.77582,57.3325993 L158.781681,57.3325993 L157.893036,43.3750905 L160.859337,57.3325993 L182.823439,57.3325993 C187.077651,57.3325993 188.561534,57.0589729 189.30842,56.8534784 C192.139189,56.0721598 193.453475,53.907691 193.373255,51.5501819 C193.354208,50.9813174 193.249446,49.8593394 192.574354,46.6802186 L190.797065,38.3216108 C190.29853,35.9761163 189.86483,34.4735889 189.432596,33.593479 C188.40842,31.5114278 186.645417,30.4571421 184.698896,30.047948 C183.793768,29.8574718 182.562633,29.7652007 180.934794,29.7652007 L125.093403,29.7652007 L125.464099,31.5084241 C123.747616,30.157545 121.24725,29.2641018 118.399264,29.2641018 C114.842122,29.2641018 112.349448,30.6340285 111.263367,32.6014644 L110.651646,29.7212813 L98.7153821,29.7212813 L105.499997,61.6402915 C105.11062,61.5047604 104.890474,61.3846138 104.890474,61.3846138 L104.466664,58.5846139 C104.0641,58.013918 103.408056,57.3988997 102.587543,56.835896 L96.4307668,27.8710249 L112.149081,27.8710249 L112.374356,28.9285707 C113.242854,28.4011715 115.106591,27.414285 118.399264,27.414285 C119.736993,27.414285 121.019777,27.584285 122.234429,27.9153839 L180.934794,27.9153839 C182.691204,27.9153839 184.046882,28.0208418 185.079483,28.2373253 C187.473988,28.7409883 189.769592,30.0875817 191.092669,32.7775816 C191.601094,33.8128197 192.068493,35.404065 192.606222,37.9369954 L194.383512,46.2956032 C195.080948,49.5794859 195.19853,50.7941379 195.221973,51.4875445 C195.336625,54.8315005 193.343951,57.6586066 189.799629,58.6369949 C188.877651,58.890841 187.251277,59.1827824 182.823439,59.1827824 L150.596333,59.1827824 C150.72637,58.4494491 150.774355,57.835896 150.77582,57.3325993" id="path26" fill="#BF9206"></path>
                        <path d="M72.7153828,39.163369 L74.686445,48.4358962 C75.0340641,50.0721599 75.2263717,50.8336984 74.6956025,51.1853467 C74.4802179,51.3278375 74.0336978,51.3992661 73.3553095,51.3992661 L70.0183133,35.6989735 C70.9124524,35.6989735 71.5010971,35.8779845 71.783881,36.2367024 C72.0662986,36.5952738 72.3769213,37.5710613 72.7153828,39.163369" id="path28" fill="#FFFFFF"></path>
                        <path d="M35.4346878,55.4827825 L41.6410246,55.4827825 L39.8267389,46.9472516 L41.6846143,46.9472516 L43.4989,55.4827825 L49.7054933,55.4827825 L44.631867,31.6150175 L38.4256401,31.6150175 L40.5564092,41.6399257 L38.6989001,41.6399257 L36.5683507,31.6150175 L30.3615743,31.6150175 L35.4346878,55.4827825 Z M58.9849802,55.9838814 C61.3025626,55.9838814 65.2684965,54.9996323 64.87509,50.7501819 C64.7838812,49.767398 64.4772878,48.0476178 63.9549435,45.5904751 L63.0871779,41.5069587 C62.5772878,39.1087902 62.1600717,37.4109881 61.834797,36.4139918 C60.5523794,32.4821237 56.7945041,31.1139186 53.6985335,31.1139186 C51.3739914,31.1139186 49.286812,31.8171787 48.334431,33.6202189 C47.8930391,34.4552739 47.7172149,35.3641383 47.8084237,36.3475815 C47.8992662,37.3300357 48.2058596,39.0498159 48.7282039,41.5069587 L49.5963358,45.5904751 C50.1062259,47.9886435 50.5227094,49.6860793 50.8483504,50.6842478 C51.8007313,53.6084236 54.7117202,55.9838814 58.9849802,55.9838814 L58.9849802,55.9838814 Z M68.0172144,55.4827825 L72.660804,55.4827825 C75.6578736,55.4827825 77.656042,55.3450536 78.6542105,55.0695957 C80.0802178,54.6761891 81.4311335,53.6523796 81.3619027,51.6128192 C81.3347965,50.8410244 81.081683,49.3252735 80.6014632,47.064834 L78.8245402,38.7062261 C78.3692288,36.563369 77.9637343,35.1312079 77.6091556,34.4087537 C76.8446867,32.8542849 75.5597051,32.1534424 74.1553095,31.858241 C73.3835146,31.6962996 72.2556758,31.6150175 70.7721594,31.6150175 L62.9435882,31.6150175 L68.0172144,55.4827825 Z M15.2767395,64.7761889 L7.82553094,29.7212813 L46.1300355,29.7652007 L46.7479842,32.6718307 C48.1333321,30.146959 50.9296691,29.2641018 53.6985335,29.2641018 C56.5190462,29.2641018 59.1582403,30.1362264 61.1362622,32.0073618 L61.1344307,32.0000725 L60.6593391,29.7652007 L70.7721594,29.7652007 C72.3992656,29.7652007 73.6304011,29.8574718 74.5358956,30.047948 C75.5476172,30.2608417 76.4608039,30.6461897 77.248716,31.1934791 C77.290108,31.2219406 77.3293021,31.2538454 77.3699614,31.2834791 L77.0468845,29.7652007 L79.3314998,29.7652007 L90.0934043,29.7652007 L91.5912065,29.7652007 L96.5520122,54.8717935 C95.9223419,54.8787532 95.2934042,54.9604382 94.6791185,55.1311342 L93.7388255,50.7062258 L89.5959685,50.7062258 L88.6340637,46.1805849 L92.5109867,46.1805849 L91.5457853,41.6399257 L87.668496,41.6399257 L86.5534777,36.3915009 L91.1084226,36.3915009 L90.0934043,31.6150175 L79.3314998,31.6150175 L84.4047598,55.4827825 L93.7124519,55.4827825 C92.6948695,55.9523796 92.0032944,56.6190462 91.5366277,57.3325993 L82.9065913,57.3325993 C82.9065913,57.3325993 82.3278368,54.7208778 82.3179467,54.7355298 C81.6498148,55.744321 80.5827819,56.4567751 79.1457856,56.8534784 C78.3988991,57.0589729 76.9139175,57.3325993 72.660804,57.3325993 L66.519046,57.3325993 L65.9102548,54.4695957 C64.5747237,56.8556762 61.9234417,57.8336982 58.9849802,57.8336982 C56.1347971,57.8336982 53.4761891,56.9406579 51.5051269,55.0523796 L51.5146507,55.0981671 L51.9897423,57.3325993 L35.4139552,57.3325993 C35.4630394,58.8271048 35.2512445,60.0483501 34.7740651,61.0208776 C34.3667024,61.8505479 33.8239918,62.5413904 33.1650541,63.082416 C32.0160798,63.1065918 30.840219,62.867764 29.8304388,62.5659325 C29.9873985,62.5391926 30.1352007,62.5109874 30.2661531,62.4809508 C31.5649443,62.1838812 32.5143215,61.4256395 33.1138453,60.205493 C33.7126365,58.9853465 33.7283874,57.0388264 33.1603288,54.3659327 C32.6420871,51.9256397 31.9891933,50.285713 31.2047978,49.4468852 C30.41923,48.6076911 29.1178747,48.1040281 27.3006953,47.9362625 C29.7556037,47.2930391 30.8087172,46.1025629 30.8556403,44.4791198 C30.8716842,43.9175813 30.6109882,42.3710612 30.0729663,39.8406583 L28.3151641,31.5710981 L20.7426002,31.5710981 L22.9572888,41.9904751 C23.3142851,43.6684971 23.4026001,44.7076912 23.2230031,45.1087901 C23.0431496,45.5087901 22.392124,45.7091564 21.2689006,45.7091564 L18.2636625,31.5710981 L10.1098899,31.5710981 L16.7748347,62.9267384 L22.5462265,62.9267384 C24.2476551,62.9267384 25.6983876,62.8974343 26.9014645,62.8391926 C26.7965927,63.4809508 26.656373,64.1029288 26.4850909,64.7087896 C25.3561532,64.7538445 24.0461899,64.7761889 22.5462265,64.7761889 L15.2767395,64.7761889 L15.2767395,64.7761889 Z" id="path30" fill="#FFFFFF"></path>
                        <path d="M54.5424895,35.1531127 C54.9648338,35.1531127 55.2750902,35.3399625 55.4725261,35.7135522 C55.6695957,36.086446 55.917581,36.9761896 56.2164821,38.3820503 L58.5476176,49.3498156 C58.9194124,51.0978009 59.0890095,51.9446873 58.1556762,51.9446873 C57.295603,51.9446873 57.0186799,51.311354 56.6018301,49.3498156 L54.2325994,38.2047609 C53.9384602,36.8190467 53.8128192,35.9641017 53.8571415,35.6395962 C53.9010976,35.3157867 54.129669,35.1531127 54.5424895,35.1531127" id="path32" fill="#FFFFFF"></path>
                        <path d="M25.3861898,53.4172148 L25.7524902,55.140658 C25.9638455,56.1347971 25.9244682,56.7871781 25.6358602,57.0970682 C25.3465561,57.4069583 24.7304389,57.561537 23.7882045,57.561537 L22.3062632,50.5897423 C23.2223071,50.5897423 23.8920873,50.7157496 24.3133327,50.9670317 C24.7351642,51.2190463 25.092417,52.0351635 25.3861898,53.4172148" id="path34" fill="#FFFFFF"></path>
                        <path d="M112.884613,38.6029294 L113.217213,40.1655668 L118.981316,40.1655668 L118.3641,37.2615375 C117.971426,35.4113544 118.260437,35.1531127 119.021609,35.1531127 C119.700363,35.1531127 120.338459,35.5915009 120.655675,37.0846145 C120.953843,38.4897426 120.958239,39.4084239 120.666297,39.8413909 C120.365198,40.2736254 119.55018,40.9959697 118.223074,42.0084239 C116.8967,43.0300356 116.03333,43.7725264 115.629667,44.2344311 C114.721243,45.2750904 114.472158,46.9750904 114.962268,49.2765555 C115.350547,51.1043943 115.867763,52.4410243 116.514649,53.2860793 C117.160803,54.1311342 118.054942,54.7923063 119.198898,55.2688631 C120.341389,55.7454199 121.650913,55.9838814 123.124539,55.9838814 C125.640656,55.9838814 128.427469,55.1670316 128.91648,53.2347972 C129.116847,52.4428558 129.015381,51.0992661 128.611718,49.2025629 L128.411718,48.2589732 L122.64725,48.2589732 L123.023806,50.0282039 C123.24322,51.063735 123.422708,51.9446873 122.472891,51.9446873 C121.785345,51.9446873 121.228568,51.4300353 120.946151,50.1018302 C120.776554,49.3058596 120.75714,48.7058596 120.887909,48.3036618 C121.008422,47.8999988 121.489741,47.4135519 122.331865,46.8439549 C124.744319,45.2021967 126.198165,43.8556766 126.691572,42.8043945 C127.186077,41.7527462 127.18388,40.0575082 126.687543,37.7183141 C126.325272,36.0179112 125.860436,34.7649076 125.290839,33.9593398 C123.901462,31.9911714 120.80659,31.1139186 118.399264,31.1139186 C115.468129,31.1139186 112.902561,32.2750541 112.549814,34.4604387 C112.392305,35.4332592 112.504759,36.8139185 112.884613,38.6029294 L112.884613,38.6029294 Z M132.450912,55.4827825 L138.657139,55.4827825 L134.599264,36.3915009 L138.373257,36.3915009 L137.357872,31.6150175 L127.377652,31.6150175 L132.450912,55.4827825 Z M162.357139,55.4827825 L167.546882,55.4827825 L168.741754,44.73553 L171.02527,55.4827825 L176.215014,55.4827825 L171.14212,31.6150175 L165.701827,31.6150175 L164.779849,42.4655667 L162.473256,31.6150175 L157.284245,31.6150175 L162.357139,55.4827825 Z M182.823439,55.4827825 C185.821241,55.4827825 187.818677,55.3450536 188.817578,55.0695957 C190.551644,54.5912074 191.585343,53.396702 191.524537,51.6128192 C191.498164,50.8410244 191.24505,49.3252735 190.76483,47.064834 L188.987907,38.7062261 C188.531863,36.563369 188.127102,35.1312079 187.772156,34.4087537 C187.068127,32.9769223 185.887907,32.1883508 184.318677,31.858241 C183.546882,31.6962996 182.418677,31.6150175 180.934794,31.6150175 L173.106589,31.6150175 L178.179849,55.4827825 L182.823439,55.4827825 Z M110.651646,29.7212813 L111.263367,32.6014644 C112.349448,30.6340285 114.842122,29.2641018 118.399264,29.2641018 C121.24725,29.2641018 123.747616,30.157545 125.464099,31.5084241 L125.093403,29.7652007 L180.934794,29.7652007 C182.562633,29.7652007 183.793768,29.8574718 184.698896,30.047948 C186.645417,30.4571421 188.40842,31.5114278 189.432596,33.593479 C189.86483,34.4735889 190.29853,35.9761163 190.797065,38.3216108 L192.574354,46.6802186 C193.249446,49.8593394 193.354208,50.9813174 193.373255,51.5501819 C193.453475,53.907691 192.139189,56.0721598 189.30842,56.8534784 C188.561534,57.0589729 187.077651,57.3325993 182.823439,57.3325993 L160.859337,57.3325993 L157.893036,43.3750905 L158.781681,57.3325993 L150.77582,57.3325993 C150.778751,56.1091561 150.508421,55.5373612 150.481315,55.4827825 L156.810619,55.4827825 L155.290106,31.6150175 L148.936626,31.6150175 L149.538091,35.9051639 L147.312451,35.9051639 L146.031864,31.6150175 L139.604392,31.6150175 L147.419044,54.2838814 C146.321608,54.3351635 145.691205,54.9362624 145.691205,54.9362624 C145.693403,54.9457862 145.694868,54.9549437 145.697066,54.9637349 L139.932231,38.241391 L136.883513,38.241391 L140.941755,57.3325993 L130.952744,57.3325993 L130.368861,54.5849803 C129.195601,56.8600718 126.18388,57.8336982 123.124539,57.8336982 C120.146883,57.8336982 117.770327,56.9457861 116.143953,55.5637349 L117.937726,64.0029288 C117.178019,63.4479838 116.426737,62.9472512 115.729667,62.5106211 L109.153477,31.5710981 L100.999997,31.5710981 L107.468862,62.0058593 C106.63443,61.9732585 105.952012,61.7974344 105.499997,61.6402915 L98.7153821,29.7212813 L110.651646,29.7212813 L110.651646,29.7212813 Z" id="path36" fill="#FFFFFF"></path>
                        <path d="M182.87875,39.163369 L184.849812,48.4358962 C185.07875,49.5168486 185.19157,50.2098889 185.188274,50.5146508 C185.177285,51.2377277 184.663732,51.3992661 183.51831,51.3992661 L180.18168,35.6989735 C181.075087,35.6989735 181.663732,35.8779845 181.947248,36.2367024 C182.228933,36.5952738 182.540288,37.5710613 182.87875,39.163369" id="path38" fill="#FFFFFF"></path>
                        <path d="M151.444685,50.1461526 C149.846516,45.5857131 148.743952,42.2487169 148.138092,40.1362627 L150.260802,40.1362627 C150.520509,42.8384605 150.915381,46.1750904 151.444685,50.1461526" id="path40" fill="#FFFFFF"></path>
                        <path d="M25.7152741,49.0366288 C26.4173986,49.4560427 26.8953107,50.4168486 27.2642118,52.1523796 L27.6305121,53.8758228 C28.0912447,56.0428557 27.4069957,56.7633685 26.7772887,57.1172147 C27.0119407,56.4109876 26.8893034,55.5677642 26.7533693,54.9282038 L26.3870689,53.2047606 C26.0182045,51.4692295 25.5404389,50.5084236 24.8381679,50.0890097 C23.8415745,49.4937717 22.7193401,49.6131856 22.1434427,49.5662991 L21.9194866,48.5142845 L23.1833694,48.5142845 C23.9958236,48.5142845 24.9979847,48.6084237 25.7152741,49.0366288" id="path42" fill="#BF9206"></path>
                        <path d="M24.2429298,45.2919403 C24.3891569,44.7864458 24.4103291,43.9058597 23.9582045,41.7776546 L22.00608,32.5941384 L23.1068126,32.5941384 L24.8353107,40.7252737 C25.3661532,43.2241747 25.2445415,44.0036619 25.0342118,44.4743579 C24.8634792,44.8527461 24.5806221,45.1120868 24.2429298,45.2919403" id="path44" fill="#BF9206"></path>
                        <path d="M17.6032963,61.9032952 L11.3737726,32.5941384 L12.4743953,32.5941384 L18.4804391,60.8509142 L23.4234793,60.8509142 C27.1743217,60.8509142 29.6952374,60.7098886 30.9157501,60.431134 C31.3824901,60.3241743 31.7852739,60.1413904 32.1298527,59.8802183 C31.6690835,60.7413904 30.9836989,61.2670314 30.0386439,61.4835149 C29.5059333,61.6051267 28.7253839,61.7003648 27.7034792,61.7692292 C27.3023803,61.5879105 27.0662997,61.4622695 27.0662997,61.4622695 C27.0577283,61.5783867 27.0467026,61.6934051 27.0355305,61.8084234 C25.8186074,61.871427 24.3223437,61.9032952 22.5462265,61.9032952 L17.6032963,61.9032952" id="path46" fill="#BF9206"></path>
                        <polyline id="path48" fill="#BF9206" points="39.68901 32.6384974 40.7102554 32.6384974 42.6238085 41.6399257 41.6025631 41.6399257 39.68901 32.6384974"></polyline>
                        <polyline id="path50" fill="#BF9206" points="39.3673983 44.9007315 43.3168487 44.9007315 45.1315007 53.4362624 48.2241746 53.4362624 48.4421233 54.4593393 44.3271051 54.4593393 42.5128195 45.9238084 39.5849807 45.9238084 39.3673983 44.9007315"></polyline>
                        <polyline id="path52" fill="#BF9206" points="40.1600723 53.4362624 40.3776547 54.4593393 36.2631493 54.4593393 31.6250175 32.6384974 32.6463728 32.6384974 37.0673983 53.4362624 40.1600723 53.4362624"></polyline>
                        <path d="M59.73846,51.9655665 C59.9223428,51.4780207 59.909156,50.8362625 59.5487165,49.1373614 L57.2172147,38.1692298 C56.7934052,36.1765925 56.5457861,35.5546145 56.3769217,35.2355303 C56.0003649,34.5226731 55.3490829,34.1300358 54.5424895,34.1300358 C54.2747239,34.1300358 54.029669,34.1769589 53.8124529,34.2622336 C54.0457862,33.639523 54.6413906,33.2530761 55.4194125,33.2530761 C56.2260059,33.2530761 56.877288,33.6458233 57.2538447,34.3585339 C57.4227092,34.6773251 57.6706945,35.3000357 58.0941377,37.2923068 L60.4252732,48.2604384 C60.9776542,50.8575079 60.7600717,51.5714273 59.73846,51.9655665" id="path54" fill="#BF9206"></path>
                        <path d="M50.2608046,32.9754571 C50.2095226,33.0546146 50.1608046,33.13586 50.116116,33.2212812 C49.7659328,33.8835156 49.6311343,34.5879112 49.7040281,35.3761896 C49.7908412,36.3142482 50.0945042,38.0106218 50.6058595,40.4172151 L51.4739914,44.5010978 C51.9743577,46.8553102 52.3860793,48.5336984 52.6981672,49.4901087 C53.3695957,51.5501819 55.0106213,52.8732588 56.5626359,53.4937716 C58.916482,54.4347972 61.889742,54.1827825 63.2992658,53.2450536 C62.5190461,54.444321 60.879852,54.9611708 58.9849802,54.9611708 C55.5597056,54.9611708 52.7501818,53.2168485 51.8208778,50.3670317 C51.5095225,49.4106215 51.0974346,47.7318669 50.5970683,45.3780208 L49.7289365,41.2945045 C49.2175812,38.8879111 48.9142845,37.1915742 48.827105,36.2531493 C48.652746,34.3669955 49.697801,33.3494863 50.2608046,32.9754571" id="path56" fill="#BF9206"></path>
                        <path d="M65.155676,32.6384974 L69.576555,53.4362624 L73.3915733,53.4362624 C76.9923058,53.4362624 78.4908405,53.2322331 79.1131848,53.0604382 C79.5622691,52.9366287 79.9267379,52.7728925 80.2069577,52.5728925 C79.9472507,53.3318668 79.4732581,53.7824162 78.3824156,54.0835151 C77.7600713,54.25531 76.2615366,54.4593393 72.660804,54.4593393 L68.8454195,54.4593393 L64.2073244,32.6384974 L65.155676,32.6384974" id="path58" fill="#BF9206"></path>
                        <path d="M75.9926721,51.0146507 C75.9890091,51.0172148 75.9849798,51.0190463 75.9813168,51.0212441 C76.0219761,50.8655665 76.0454193,50.7007313 76.0479834,50.5274713 C76.0512802,50.2608046 76.0131849,49.7578742 75.6871776,48.223442 L73.7161154,38.9505485 C73.2252729,36.6399258 72.8699615,35.9619771 72.587544,35.6039552 C71.7245403,34.5084973 69.8835147,34.6985339 69.703295,34.67575 L69.4857125,33.6524167 L70.7490825,33.6524167 C71.9860788,33.6524167 72.8263718,33.9560431 73.3186795,34.5806218 C73.6003645,34.9389002 73.9556758,35.6168489 74.4468846,37.9274716 L76.4183131,47.1999988 C76.7443204,48.7347973 76.7824157,49.2377277 76.779119,49.5043944 C76.7695952,50.1487167 76.4904743,50.6842478 75.9926721,51.0146507" id="path60" fill="#BF9206"></path>
                        <polyline id="path62" fill="#BF9206" points="88.1743568 44.1340648 91.0300344 44.1340648 91.2476168 45.157508 88.3919392 45.157508 88.1743568 44.1340648"></polyline>
                        <polyline id="path64" fill="#BF9206" points="81.6164815 32.6384974 86.0369942 53.4362624 93.2728914 53.4362624 93.4904739 54.4593393 85.2333312 54.4593393 80.5948698 32.6384974 81.6164815 32.6384974"></polyline>
                        <polyline id="path66" fill="#BF9206" points="86.0937707 34.3450907 89.6274703 34.3450907 89.845419 35.3684607 86.3109869 35.3684607 86.0937707 34.3450907"></polyline>
                        <path d="M114.529301,61.7853464 C113.682415,61.2923062 112.993404,60.9300351 112.57692,60.7190461 L114.303294,60.7190461 L114.529301,61.7853464" id="path68" fill="#BF9206"></path>
                        <path d="M102.263367,32.5941384 L103.479485,32.5941384 L109.457506,60.7190461 L111.833697,60.7190461 C110.819045,61.3923062 109.838825,61.7450534 108.949082,61.9032952 L108.493404,61.9032952 L102.263367,32.5941384" id="path70" fill="#BF9206"></path>
                        <path d="M122.34322,45.1926729 C124.131865,43.9754568 125.154942,43.0794861 125.734429,42.432966 C125.416847,43.0509147 124.46007,44.1578744 121.758605,45.9967021 C121.273623,46.324541 120.892305,46.6304018 120.600363,46.9274714 C120.863001,46.3677644 121.413916,45.8212443 122.34322,45.1926729" id="path72" fill="#BF9206"></path>
                        <path d="M124.134063,51.852746 C124.267762,51.4091562 124.232598,50.7970683 124.024539,49.8157497 L123.91062,49.2824164 L124.663367,49.2824164 C124.98388,50.9498156 124.67399,51.4717936 124.134063,51.852746" id="path74" fill="#BF9206"></path>
                        <path d="M119.605858,33.3263362 C120.324173,33.3263362 120.95018,33.6216475 121.416114,34.1802556 C121.798898,34.63912 122.068495,35.2568489 122.241023,36.0676914 C122.834795,38.8626364 122.249447,39.5175814 121.680949,40.1098891 C121.988275,39.4095228 121.978385,38.3879111 121.656407,36.8717939 C121.48388,36.060402 121.214283,35.4432958 120.831499,34.9838453 C119.955308,33.9339918 118.542122,33.9626365 117.832598,34.4735889 C117.952012,34.0922702 118.381316,33.3263362 119.605858,33.3263362" id="path76" fill="#BF9206"></path>
                        <path d="M127.905858,53.0377276 C127.528568,54.2765554 125.4304,54.9611708 123.124539,54.9611708 C120.924539,54.9611708 118.59377,54.3201452 117.326737,52.6644675 C116.776554,51.9450536 116.317946,50.7336984 115.962268,49.063735 C115.382781,46.3347974 116.001096,45.2846143 116.649081,44.6483505 C116.332232,45.3582406 116.137726,46.331867 116.547616,48.2597058 C116.902561,49.9296691 117.361169,51.1413907 117.911719,51.8608046 C119.122341,53.4432221 121.368129,54.1567752 123.709887,54.1567752 C125.9304,54.1567752 127.203294,53.6139181 127.905858,53.0377276" id="path78" fill="#BF9206"></path>
                        <path d="M114.270327,33.3816841 C114.017946,33.9945413 113.976188,35.2630028 114.470693,37.5864459 L114.630034,38.3384606 L117.546884,38.3384606 L117.717946,39.1424899 L114.045785,39.1424899 L113.885345,38.3901089 C113.53333,36.7333324 113.424173,35.4658965 113.56007,34.6231127 C113.635162,34.1567757 113.871792,33.746849 114.270327,33.3816841" id="path80" fill="#BF9206"></path>
                        <polyline id="path82" fill="#BF9206" points="134.139923 34.3450907 136.893037 34.3450907 137.110619 35.3684607 134.357506 35.3684607 134.139923 34.3450907"></polyline>
                        <polyline id="path84" fill="#BF9206" points="129.663 32.6384974 134.083513 53.4362624 137.17692 53.4362624 137.394502 54.4593393 133.279484 54.4593393 128.641022 32.6384974 129.663 32.6384974"></polyline>
                        <polyline id="path86" fill="#BF9206" points="150.112817 32.6384974 150.914648 32.6384974 151.372524 35.9051639 150.572157 35.9051639 150.112817 32.6384974"></polyline>
                        <path d="M142.049813,32.6384974 L149.219776,53.4362624 L155.654575,53.4362624 L155.720143,54.4593393 L148.666663,54.4593393 C148.627469,54.4468851 148.588275,54.4351635 148.549447,54.4241745 L141.038824,32.6384974 L142.049813,32.6384974" id="path88" fill="#BF9206"></path>
                        <polyline id="path90" fill="#BF9206" points="153.304392 51.8131855 152.558604 52.1641013 151.190106 39.1128195 147.731132 39.1128195 147.437725 38.0897426 151.848348 38.0897426 153.304392 51.8131855"></polyline>
                        <polyline id="path92" fill="#BF9206" points="172.658237 53.4362624 174.734062 53.4362624 174.951644 54.4593393 171.853842 54.4593393 168.863366 40.9743579 169.214648 37.9106218 172.658237 53.4362624"></polyline>
                        <polyline id="path94" fill="#BF9206" points="166.747981 53.4362624 166.630399 54.4593393 163.18571 54.4593393 158.547615 32.6384974 159.569227 32.6384974 163.989739 53.4362624 166.747981 53.4362624"></polyline>
                        <polyline id="path96" fill="#BF9206" points="165.393036 45.817215 166.64212 32.6384974 167.348714 32.6384974 165.878018 48.1571417 165.393036 45.817215"></polyline>
                        <path d="M186.114647,51.1197789 C186.30549,50.5230757 186.1956,49.8472515 185.849812,48.223442 L183.87875,38.9505485 C183.387908,36.6399258 183.033329,35.9619771 182.750545,35.6039552 C181.984245,34.6311347 180.997798,34.808827 180.012083,34.67575 L179.794501,33.6524167 L181.058604,33.6524167 C183.456772,33.6524167 183.989006,34.3197794 184.756039,37.9274716 L186.727102,47.1999988 C187.053109,48.7347973 187.091937,49.2377277 187.088274,49.5043944 C187.07179,50.6366288 186.268494,51.0450537 186.114647,51.1197789" id="path98" fill="#BF9206"></path>
                        <path d="M175.464831,32.6384974 L179.885343,53.4362624 L183.700728,53.4362624 C187.301461,53.4362624 188.799629,53.2322331 189.422706,53.0604382 C189.774721,52.9630023 190.074354,52.840658 190.323438,52.6963357 C190.155307,53.1117203 189.869226,53.7183137 188.545783,54.0835151 C187.92234,54.25531 186.424537,54.4593393 182.823439,54.4593393 L179.008054,54.4593393 L174.369959,32.6384974 L175.464831,32.6384974" id="path100" fill="#BF9206"></path>
                        <path d="M124.12344,126.106224 C124.12344,126.106224 124.854576,128.361169 128.877286,129.153843 C128.877286,129.153843 129.304392,129.641389 129.365198,130.677652 C129.426004,131.714282 124.708422,133.688275 116.686444,130.738825 C112.541023,129.214649 110.651646,126.898532 110.651646,126.898532 C110.651646,126.898532 115.589008,128.787909 116.381682,127.02051 C117.174356,125.252744 114.492305,124.033697 114.492305,124.033697 C114.492305,124.033697 114.004393,126.349814 110.834063,124.704026 C110.834063,124.704026 112.175455,123.424173 113.028935,122.143953 C113.028935,122.143953 117.356774,125.557506 124.12344,126.106224" id="path102" fill="#FFFFFF"></path>
                        <path d="M124.910986,125.093037 C123.260436,125.054942 121.499631,124.640656 121.499631,124.640656 C125.155675,121.712817 126.561535,126.227836 129.791572,126.045052 C132.472158,125.893403 131.986444,123.119411 131.986444,123.119411 C132.047249,123.911719 131.315381,125.191572 129.791572,125.191572 C128.812085,125.191572 128.011718,124.688642 127.562268,124.328935 C131.060803,124.136993 128.987543,120.852744 134.668861,120.497799 C138.630766,120.250546 138.691572,123.667762 138.691572,123.667762 C136.558238,121.717213 135.034429,122.631499 135.034429,123.545784 C135.034429,123.856773 134.851279,126.349814 132.047249,127.446883 C126.924173,129.452011 124.910986,125.093037 124.910986,125.093037" id="path104" fill="#BF9206"></path>
                        <path d="M125.220143,119.477286 C125.220143,119.494503 125.224173,119.51062 125.224905,119.52747 C124.975455,119.668129 124.71355,119.80659 124.452378,119.936993 C124.325638,119.645052 124.184246,119.378385 124.038092,119.143953 C125.057506,118.921975 126.028568,118.626737 126.579484,118.447982 C126.604392,118.463733 126.630766,118.482781 126.656041,118.499631 C126.56007,118.611352 126.429667,118.728935 126.27399,118.850913 C126.172891,118.795601 126.058605,118.761535 125.935528,118.761535 C125.540656,118.761535 125.220143,119.082048 125.220143,119.477286" id="path106" fill="#FFFFFF"></path>
                        <path d="M126.273257,112.861902 C127.87985,112.293404 128.845052,111.508056 129.26007,110.84029 C129.026737,110.528202 128.756407,110.063367 128.622707,109.476188 C127.698165,109.43736 126.227469,109.936627 124.734795,110.412085 C123.199631,110.901462 121.504026,111.763367 120.902927,112.216847 C120.936627,112.410254 121.057506,112.915382 121.104026,113.071792 C121.828202,113.266298 123.928568,113.691206 126.273257,112.861902 L126.273257,112.861902 Z M129.038825,122.413916 C128.712817,123.53736 126.558605,123.308422 126.558605,123.308422 C124.66703,122.096334 123.026371,122.668861 123.026371,122.668861 C123.026371,122.668861 123.297067,122.191938 123.332598,121.619411 C123.332598,121.619411 126.482048,120.366664 127.483513,119.185711 C127.483513,119.185711 128.486077,119.507689 128.808055,120.080217 C128.808055,120.080217 129.058239,119.794136 129.129667,119.472158 C129.129667,119.472158 127.878019,117.75421 126.660803,117.289008 C126.660803,117.289008 123.368495,118.434063 121.650913,118.362634 C119.932964,118.291206 120.719777,117.611352 120.863733,116.644686 C120.956041,116.017213 121.003294,115.26996 120.966664,114.665931 C120.763733,114.677287 120.526737,114.662634 120.294869,114.581316 C120.191206,115.318312 119.958605,116.620144 119.539557,117.360437 C118.938459,118.420876 120.085345,119.687176 122.802561,119.235894 C123.008056,119.505492 123.337726,119.987176 123.54725,120.545418 C123.54725,120.545418 123.061535,120.788275 122.508422,120.963367 C122.130766,120.746517 121.25714,120.652744 121.25714,120.652744 C121.25714,121.118312 120.827103,121.511719 120.827103,121.511719 C121.25714,121.619411 122.115748,122.012817 122.115748,122.012817 C122.063367,122.309887 121.917579,122.742854 121.780949,123.109154 C120.792305,123.600363 120.184979,124.320876 120.184979,124.320876 C119.701096,124.192671 119.565931,124.139924 119.565931,124.139924 C120.558971,121.901462 119.002195,120.223807 118.501462,119.615382 C118.00073,119.00659 116.926737,117.790107 117.320876,116.143953 C117.714283,114.497799 117.928935,110.704027 117.928935,110.704027 C122.831132,110.417946 127.949447,106.553111 127.949447,106.553111 C130.271792,109.253111 130.946151,111.366298 131.138825,112.241023 C132.015748,113.164466 132.941022,114.044686 132.941022,114.044686 C132.334429,114.651279 130.363367,115.288276 130.363367,115.288276 C130.090107,113.98388 130.454209,112.134429 130.454209,112.134429 C129.968861,112.225272 129.574722,112.134429 129.574722,112.134429 C129.301462,112.558972 129.180583,114.287543 129.180583,114.287543 C128.028202,114.256774 125.784612,113.68095 125.784612,113.68095 C125.906224,114.044686 125.997066,114.89377 125.997066,114.89377 C127.755674,114.772525 129.696334,115.166664 129.696334,115.166664 C129.574722,116.349448 129.696334,118.744686 129.696334,118.744686 C130.060436,119.109155 130.636627,118.987543 130.636627,118.987543 C130.484978,118.684612 130.545052,118.047616 130.545052,118.047616 C131.473623,117.632964 132.812085,117.374722 133.299264,117.290473 C133.395235,117.949448 133.452378,118.881316 133.482414,119.51062 C130.954942,119.807689 129.338825,121.382048 129.038825,122.413916 L129.038825,122.413916 Z" id="path108" fill="#BF9206"></path>
                        <path d="M130.824539,116.791572 C130.824539,116.831499 130.829667,116.869228 130.83626,116.907323 C130.686444,116.936627 130.535528,116.961169 130.388275,116.976554 C130.367396,116.804759 130.345418,116.546884 130.349081,116.261902 C130.625638,116.183147 131.246151,115.98681 131.624539,115.712085 C131.624539,115.712085 131.812085,115.971426 131.958605,116.213917 C131.840656,116.128569 131.6967,116.076188 131.54029,116.076188 C131.145052,116.076188 130.824539,116.3967 130.824539,116.791572" id="path110" fill="#FFFFFF"></path>
                        <path d="M132.109521,111.702195 C132.059704,111.446151 131.925638,111.066298 131.806224,110.75421 C134.327469,109.606224 138.075454,106.961536 139.588641,105.8641 C140.280583,105.95714 140.860802,106.012085 141.290839,106.043953 C138.772524,108.305858 133.779484,111.199997 132.417213,111.972525 C132.255674,111.796701 132.109521,111.702195 132.109521,111.702195" id="path112" fill="#FFFFFF"></path>
                        <path d="M113.473257,120.527836 C113.473257,120.527836 112.828935,119.936993 112.775821,118.434429 C112.722342,116.931133 114.439924,115.696334 114.439924,115.696334 C115.244686,117.897433 116.264832,119.776187 116.264832,119.776187 C115.566664,121.654942 113.473257,120.527836 113.473257,120.527836" id="path114" fill="#BF9206"></path>
                        <path d="M111.681316,117.995968 C111.614649,118.49377 111.629668,119.041389 111.804393,119.593404 C108.687177,120.368495 92.5648329,124.010986 77.1322325,120.635162 C77.1322325,120.635162 79.3102544,120.387176 81.6227086,119.511719 C85.3095217,119.88681 92.3772871,121.44029 111.681316,117.995968" id="path116" fill="#FFFFFF"></path>
                        <path d="M128.086077,105.280583 C128.086077,105.280583 127.184612,106.271426 125.89377,106.803294 C125.89377,106.803294 120.880949,100.129302 114.654576,97.1772869 C114.654576,97.1772869 116.211352,96.7476166 116.694136,96.0494481 C116.694136,96.0494481 120.719777,97.0699609 122.975089,99.2168473 C125.229301,101.3641 133.764466,105.228935 137.843953,105.443587 C137.843953,105.443587 134.339557,108.253843 131.226004,109.756774 C131.226004,109.756774 129.479118,106.053477 128.086077,105.280583" id="path118" fill="#FFFFFF"></path>
                        <path d="M110.198898,108.717946 C110.198898,108.717946 110.842854,109.201462 111.648349,109.362268 C111.648349,109.362268 114.439924,106.839191 114.599997,104.423807 C114.599997,104.423807 113.634429,103.457507 112.883147,103.189375 C112.883147,103.189375 113.293037,101.720877 112.336627,100.438459 C113.02051,99.028569 113.151279,97.8208767 113.151279,97.8208767 C117.982781,99.1095213 121.20366,103.832964 121.20366,103.832964 C119.968861,103.672159 117.66007,102.3304 117.66007,102.3304 C116.58681,102.545052 117.06996,103.189375 117.06996,103.189375 C118.519411,103.618679 124.00366,107.723807 124.00366,107.723807 C122.339557,109.227103 117.043221,109.82051 117.043221,109.82051 C116.949081,111.373624 116.672158,114.351279 116.672158,114.351279 C116.40366,113.439191 112.184979,110.704027 112.184979,110.704027 C111.755675,110.919045 111.541023,111.670693 111.541023,111.670693 C112.722342,112.207323 114.379118,114.417946 114.379118,114.417946 C113.889008,114.80366 112.292305,115.320876 112.292305,115.320876 C112.292305,115.320876 109.071426,112.529301 110.198898,108.717946" id="path120" fill="#BF9206"></path>
                        <path d="M95.4904738,112.260803 C95.2223419,113.442122 93.9336973,114.998898 93.9336973,114.998898 C92.4307669,116.072158 88.941756,116.072158 88.941756,116.072158 C89.9615362,115.428202 90.1761882,113.871426 90.1761882,113.871426 C91.8402907,112.207323 95.4904738,112.260803 95.4904738,112.260803" id="path122" fill="#BF9206"></path>
                        <path d="M95.4117192,114.681316 C95.7897412,114.158972 96.4025617,113.124539 96.4684958,111.833697 C96.4684958,111.833697 97.9062247,110.543221 99.6776532,110.328569 C99.6776532,110.328569 98.8901074,111.715016 99.7307667,113.251279 C99.1263711,113.743953 97.6714261,114.679851 95.4117192,114.681316" id="path124" fill="#BF9206"></path>
                        <path d="M100.389008,112.205492 C100.368862,111.416847 100.458239,110.030766 101.23443,109.254942 C101.23443,109.254942 102.146518,108.503294 103.542488,108.289008 C103.542488,108.289008 102.952378,109.57692 103.327836,110.704027 C103.327836,110.704027 102.132232,112.282048 100.389008,112.205492" id="path126" fill="#BF9206"></path>
                        <path d="M106.226737,108.181682 C106.226737,108.181682 105.689375,109.57692 104.240657,109.899265 C104.240657,109.899265 103.909521,108.655675 104.412452,108.026371 C104.816115,108.113184 105.463367,108.212818 106.226737,108.181682" id="path128" fill="#BF9206"></path>
                        <path d="M99.8388253,105.550913 C99.3556752,104.584613 100.053477,103.618679 100.053477,103.618679 C101.663734,103.941023 102.308422,103.672159 102.308422,103.672159 C101.912085,103.639192 101.37399,103.443953 101.018312,103.298532 C101.10073,103.128935 101.153477,102.896334 101.185712,102.694869 C102.288276,102.775455 102.683148,102.384247 102.683148,102.384247 C101.663734,102.3304 100.536994,101.525272 100.536994,101.525272 C100.589741,100.719778 101.395602,100.129302 101.395602,100.129302 C102.845052,100.45128 103.542488,101.3641 103.542488,101.3641 C103.81062,100.504759 102.845052,99.9684957 102.845052,99.9684957 C103.81062,99.2168473 102.898532,98.5190452 102.898532,98.5190452 C103.113184,97.7135507 103.917946,97.0161148 103.917946,97.0161148 C104.991939,97.2842467 106.012085,98.357873 106.012085,98.357873 C105.958605,97.6062247 105.421243,96.8549426 105.421243,96.8549426 C105.851279,96.2644665 105.260071,96.0494481 105.260071,96.0494481 C105.421243,95.0835141 106.119411,94.7615361 106.119411,94.7615361 C107.031499,94.8150159 107.89084,95.6739903 107.89084,95.6739903 C107.89084,94.8150159 107.085345,94.2780196 107.085345,94.2780196 C109.769594,94.4926716 112.154942,97.1802174 112.154942,97.1802174 C112.285711,98.0956019 111.594503,99.0021953 111.594503,99.0021953 C110.198898,97.3380928 107.246151,97.0161148 107.246151,97.0161148 C108.212818,98.6263712 111.165565,99.5388254 111.165565,99.5388254 C111.326371,100.773624 110.46703,101.578752 110.46703,101.578752 C109.554942,100.45128 105.904027,99.8073235 105.904027,99.8073235 C106.870693,101.632598 110.41355,102.598532 110.41355,102.598532 C110.41355,103.618679 109.286078,104.638459 109.286078,104.638459 C106.441389,102.974356 103.542488,102.974356 103.542488,102.974356 C104.831133,104.047983 108.373624,105.175455 108.373624,105.175455 C108.266298,106.248715 107.460803,107.430034 107.460803,107.430034 C105.260071,107.483514 102.575822,106.248715 102.575822,106.248715 C101.556408,105.282415 99.8388253,105.550913 99.8388253,105.550913" id="path130" fill="#BF9206"></path>
                        <path d="M112.76007,106.696701 C112.372158,107.389375 111.898166,108.07692 111.408056,108.398898 C111.408056,108.398898 109.919045,107.967763 109.062635,106.85714 C109.160803,106.641023 109.25018,106.384246 109.298166,106.099997 C109.889741,105.694137 111.308422,104.69084 112.163367,103.846884 C112.627103,104.024906 113.472525,104.387543 113.675821,104.73736 C113.675821,104.73736 113.42051,105.412818 113.024906,106.1978 C112.431865,106.098166 111.841389,105.490474 111.841389,105.490474 C112.323074,105.129668 112.491939,104.74432 112.491939,104.74432 C112.443221,104.358972 112.178385,104.287177 112.178385,104.287177 C111.91355,104.792671 111.167396,105.346151 111.167396,105.346151 C111.518679,106.121975 112.378752,106.542488 112.76007,106.696701" id="path132" fill="#BF9206"></path>
                        <path d="M111.904393,101.476188 C112.053843,101.942488 112.082415,102.489741 112.079118,102.886811 C111.837726,103.122708 111.499631,103.333697 111.285712,103.455675 C111.539558,102.418312 111.486444,102.039558 111.486444,102.039558 C111.669228,101.896334 111.805125,101.686444 111.904393,101.476188" id="path134" fill="#BF9206"></path>
                        <path d="M104.068496,95.9333309 C103.84725,95.8677632 103.636994,95.8388254 103.636994,95.8388254 C101.651646,97.0399243 101.636627,99.0838803 101.636627,99.0838803 C101.441389,98.9014627 101.153111,98.9758217 101.153111,98.9758217 C99.4399243,99.7684957 99.4252722,102.050913 99.4252722,102.050913 C99.4589719,102.156408 99.5890085,102.259338 99.7271037,102.343221 C99.5325982,102.492305 99.2985323,102.72454 99.1988986,102.961902 C97.683514,101.946884 96.7135507,100.060437 96.146884,98.5673968 C95.0611698,96.3183126 95.9904738,94.8069573 96.3194115,94.5018291 C97.81758,94.9490819 100.109155,95.4256386 100.109155,95.4256386 C99.198166,95.5981661 99.1487155,96.2380928 99.1487155,96.2380928 C100.47106,95.666298 103.198532,95.5054921 104.230034,95.4637339 C104.161902,95.639558 104.108422,95.8025617 104.068496,95.9333309" id="path136" fill="#BF9206"></path>
                        <path d="M97.9956019,103.332232 C97.9956019,103.332232 95.9197778,103.332232 94.7032943,102.759704 C94.7032943,102.759704 88.619778,95.4593383 88.619778,89.5183128 C88.619778,85.653844 90.623441,84.7948697 90.623441,84.7948697 C90.623441,84.7948697 91.5670307,84.5472506 92.54432,84.5472506 C91.9589721,85.5787524 91.1333311,87.6673971 91.5542102,90.8069574 C92.4846131,97.7498144 97.9956019,103.332232 97.9956019,103.332232" id="path138" fill="#FFFFFF"></path>
                        <path d="M94.1307669,85.0095217 C94.4890086,84.5802177 95.2758218,84.5087891 95.2758218,84.5087891 C100.64432,87.0853458 101.359704,92.5245398 101.359704,92.5245398 L99.0692283,92.3098878 C98.6399243,88.1582396 94.1307669,85.0095217 94.1307669,85.0095217" id="path140" fill="#BF9206"></path>
                        <path d="M90.0153824,101.739924 C90.0153824,101.739924 85.1304008,96.2106203 85.1304008,89.3934044 C85.1304008,86.331866 88.1901077,85.2065913 88.1901077,85.2065913 C84.0567745,89.9300344 88.0293018,98.035895 91.7329647,102.115748 L90.0153824,101.739924" id="path142" fill="#BF9206"></path>
                        <path d="M85.8014631,100.159704 C83.9076902,100.046518 82.3391921,99.5388254 82.3391921,99.5388254 C83.0369943,100.558972 84.9157488,101.149082 84.9157488,101.149082 C85.2047598,102.98095 87.6564081,103.728569 88.8926718,102.386811 L89.3285692,102.908422 L89.7373604,102.9978 C88.4238073,105.715382 85.720877,104.263001 85.720877,104.263001 C86.5289356,106.535528 91.0428549,105.861536 92.0655655,103.538093 C94.0109867,104.02747 97.4410232,104.626737 98.6490818,104.832964 C98.7032942,105.961536 99.2311331,106.723441 99.2311331,106.723441 C100.127104,106.285345 100.956041,106.636627 100.956041,106.636627 C101.386078,106.898166 102.023441,107.178386 102.575089,107.401829 C101.004759,107.839558 100.261536,108.681682 99.9336971,109.216114 C97.1380928,109.601829 96.0073236,110.787909 95.5999976,111.401829 C94.0754555,110.961536 92.1347962,111.864466 92.1347962,111.864466 C92.1347962,111.864466 83.8959686,104.960803 81.1047599,101.632598 C78.3128186,98.3043931 74.9849798,91.111353 74.9849798,91.111353 C75.1996318,89.5545765 77.1322325,87.6219758 77.1322325,87.6219758 C79.5113533,88.0157487 81.6432214,88.1849795 83.4457855,88.2336974 C82.4384595,92.1813164 84.1996316,97.1560415 85.8014631,100.159704" id="path144" fill="#FFFFFF"></path>
                        <path d="M85.0230748,85.2065913 C84.5435876,85.7413898 84.1714265,86.331866 83.8875437,86.9615363 C82.895236,86.7304008 82.2318661,86.5483495 82.2318661,86.5483495 C83.2516463,86.3336975 85.0230748,85.2065913 85.0230748,85.2065913" id="path146" fill="#FFFFFF"></path>
                        <path d="M111.508788,94.9021954 C110.921243,94.3362614 109.906224,93.9216094 109.199265,93.6824152 C109.291572,92.1274702 110.628202,91.1648329 110.628202,91.1648329 C110.735528,92.9901076 111.863001,93.3120856 111.863001,93.3120856 C111.8967,93.6820489 111.677653,94.4098877 111.508788,94.9021954" id="path148" fill="#BF9206"></path>
                        <path d="M112.197067,92.2681296 C111.918679,92.0476167 111.505125,91.3509135 111.585345,89.1520124 C111.585345,89.1520124 112.66703,86.2677634 114.967763,85.7659319 C114.967763,85.7659319 114.256774,87.8988989 115.302561,88.8611699 C115.302561,88.8611699 114.641023,91.2695948 112.197067,92.2681296" id="path150" fill="#BF9206"></path>
                        <path d="M115.812804,87.1300345 C115.812085,86.4516462 115.86996,85.0124521 116.30659,83.7699613 C116.775821,83.2520126 117.438459,82.5981664 118.049814,82.2692287 C118.052012,82.75128 118.147982,83.4985327 118.565931,84.4271041 C118.565931,84.4271041 118.084246,86.7304008 115.812804,87.1300345" id="path152" fill="#BF9206"></path>
                        <path d="M119.904393,80.2435877 C119.904393,80.2435877 121.034063,78.1098882 123.460803,77.6080567 C123.460803,77.6080567 123.391938,78.8399248 124.027469,79.6249064 C123.427103,80.5813167 121.6967,82.9831481 119.465198,82.9677635 C119.40366,82.3369943 119.383513,81.1703276 119.904393,80.2435877" id="path154" fill="#BF9206"></path>
                        <path d="M112.985345,93.0948695 C113.886078,92.6527449 116.108422,91.260071 116.588275,88.1135509 C116.873623,88.0073238 117.199264,87.8604374 117.519777,87.6597048 C118.152378,88.9208769 119.44725,91.4120856 120.364466,92.5428548 C120.364466,92.5428548 115.782781,95.635895 112.227103,96.1783859 C112.418679,95.802928 113.034063,94.4805837 112.985345,93.0948695" id="path156" fill="#FFFFFF"></path>
                        <path d="M115.917946,82.602562 C114.556407,81.4857122 113.419777,79.448716 113.419777,79.448716 C113.335895,79.7835145 112.918312,80.285346 112.918312,80.285346 C113.345418,81.2325987 114.442122,83.0271042 115.002928,83.9260052 C114.836261,84.3395583 114.738825,84.7168477 114.738825,84.7168477 C111.25421,85.7992653 110.578752,88.5597047 110.463001,89.919778 C108.699265,90.9952358 108.266298,92.5098878 108.161169,93.2212431 C106.682415,92.9175801 105.582049,93.4194116 105.582049,93.4194116 C105.328202,93.5893749 105.10769,93.9029281 104.956041,94.1622687 C104.504759,94.1234409 103.936627,94.1457852 103.456041,94.18095 C103.047983,91.8622688 101.395602,89.3395582 101.395602,89.3395582 C103.274356,89.6080564 105.743953,92.3457852 105.743953,92.3457852 C105.474723,90.0912065 101.663734,87.7827817 101.663734,87.7827817 C101.663734,87.2461517 102.146518,86.5483495 102.146518,86.5483495 C103.488642,87.3534777 104.991939,89.3395582 104.991939,89.3395582 C105.367397,86.5483495 96.7252723,77.5300347 96.7252723,77.5300347 C102.683148,80.0531116 109.286078,80.2677636 109.286078,80.2677636 C110.41355,79.4091555 112.345785,78.9256391 112.345785,78.9256391 C99.409155,80.2677636 90.8205105,71.3567748 90.8205105,71.3567748 C90.9278366,70.0688627 91.7329647,68.0285697 91.7329647,68.0285697 C92.0553091,68.4047602 92.5380929,68.5120862 92.5380929,68.5120862 C92.3772871,68.8875441 92.0553091,70.2835147 92.0553091,70.2835147 C92.0553091,70.2835147 93.0212431,72.161903 101.019778,75.6512802 C109.01758,79.1402911 116.53333,76.4564083 116.53333,76.4564083 C117.220144,77.7091556 117.724539,79.9956024 117.931865,81.0498148 C117.043953,81.507324 116.305125,82.2007305 115.917946,82.602562" id="path158" fill="#FFFFFF"></path>
                        <path d="M125.229301,76.6175805 C125.229301,76.6175805 126.087909,77.6912068 126.087909,79.3018295 C126.087909,79.3018295 125.982048,78.881683 125.007689,79.0600713 C124.834429,78.692672 124.475821,77.8091556 124.505858,76.8988992 C124.682048,76.7468845 124.939557,76.5882765 125.229301,76.6175805" id="path160" fill="#BF9206"></path>
                        <path d="M100.321609,74.3630018 C100.321609,74.3630018 97.9062247,72.7527454 96.9399243,71.1421228 C96.9399243,71.1421228 102.683148,73.1820495 106.334063,73.1282033 L106.816847,74.0945036 C106.816847,74.0945036 103.75714,76.1344303 100.321609,74.3630018" id="path162" fill="#BF9206"></path>
                        <path d="M92.9673969,67.8677639 C92.9673969,67.8677639 91.4761882,66.2879104 91.5868109,63.4468849 C92.3106204,64.6633683 95.3831478,67.1161155 98.550547,65.666665 C98.550547,65.666665 101.878386,67.3846137 103.22051,69.5318664 C103.22051,69.5318664 108.212818,72.0010971 117.820876,72.3230751 C117.820876,72.3230751 102.36117,73.8798516 92.9673969,67.8677639" id="path164" fill="#BF9206"></path>
                        <path d="M96.7252723,63.6271046 L97.0575067,64.993405 C91.6098878,65.2417566 91.4106204,59.5472513 91.4106204,59.5472513 C92.6992651,63.1978006 96.7252723,63.6271046 96.7252723,63.6271046" id="path166" fill="#BF9206"></path>
                        <path d="M97.8523785,62.9289362 C97.8523785,62.9289362 93.8651991,62.9124526 92.4234409,59.1897421 C92.4234409,59.1897421 92.0014629,57.2930389 94.6318658,56.5413905 C97.2619023,55.7897422 101.556408,56.8633685 103.327836,59.3325992 L97.8523785,62.9289362" id="path168" fill="#BF9206"></path>
                        <path d="M98.8073235,64.6868116 C98.6183126,64.6432218 98.4040268,64.6194123 98.1813162,64.6432218 L98.1710598,64.0040277 L103.655675,60.4014637 L103.775089,61.190841 L98.8073235,64.6868116" id="path170" fill="#BF9206"></path>
                        <path d="M103.933697,68.6758225 C102.822708,66.8534782 101.296701,66.1318665 101.296701,66.1318665 C106.350547,66.9183133 108.320144,65.5058592 108.320144,65.5058592 C109.662268,64.808057 110.091572,62.8216102 110.091572,62.8216102 C111.111719,62.8216102 112.345785,61.7483501 112.345785,61.7483501 C116.104026,63.3051266 121.310986,68.2974342 121.310986,68.2974342 C120.880949,69.7465184 118.680217,71.2494488 118.680217,71.2494488 C112.399631,71.6252729 103.933697,68.6758225 103.933697,68.6758225" id="path172" fill="#BF9206"></path>
                        <path d="M113.009887,73.5868113 C113.28681,73.5875439 113.612085,73.5871776 113.93333,73.5842472 C114.625272,74.0761886 115.607323,74.7999981 115.942488,75.1684963 C115.942488,75.1684963 115.549448,75.4615366 115.019411,75.5908406 C114.589374,75.1065915 113.801096,74.2549432 113.009887,73.5868113" id="path174" fill="#BF9206"></path>
                        <path d="M134.569227,72.8062253 L135.052744,70.8201447 C135.268861,71.005859 135.487176,71.1864451 135.707689,71.3626356 C135.479117,71.9029286 135.219411,72.4853462 134.929667,73.0923059 C134.6967,72.9117198 134.569227,72.8062253 134.569227,72.8062253" id="path176" fill="#BF9206"></path>
                        <path d="M139.885711,76.2604377 C137.486077,74.9985329 135.666663,73.6626355 134.929667,73.0923059 C135.219411,72.4853462 135.479117,71.9029286 135.707689,71.3626356 C137.552744,72.835163 139.532964,73.9611703 141.422341,74.8179468 C140.893037,75.3336978 140.380583,75.8142838 139.885711,76.2604377" id="path178" fill="#BF9206"></path>
                        <path d="M130.275088,80.2142837 C131.702561,78.7025621 132.90366,76.8945036 133.878751,75.1362619 C135.201828,76.2278369 136.610253,77.1282032 138.004026,77.8692288 C131.487909,83.1201444 128.783513,81.7934045 130.275088,80.2142837" id="path180" fill="#FFFFFF"></path>
                        <path d="M141.946883,75.049815 C144.867762,76.3113534 147.512817,76.9347966 149.010985,77.2168479 C148.691205,77.7813167 148.341388,78.3586061 147.969227,78.9428552 C145.400729,78.6586061 142.901095,77.7461519 140.769227,76.7087893 C141.249813,76.0853461 141.638458,75.5263717 141.946883,75.049815" id="path182" fill="#BF9206"></path>
                        <path d="M128.235528,93.4194116 C127.590839,92.5604372 125.980583,91.433331 125.980583,91.433331 C136.716846,87.8901077 142.460436,82.1465181 142.460436,82.1465181 C136.180583,86.1728916 127.268861,87.5681297 127.268861,87.5681297 C133.053843,84.4999979 136.858605,81.1725254 139.268861,78.5018295 C142.313916,79.9333313 145.134795,80.6296683 146.63919,80.9300346 C142.335894,87.0809502 136.394868,93.3120856 136.394868,93.3120856 C133.817945,92.5604372 128.235528,93.4194116 128.235528,93.4194116" id="path184" fill="#FFFFFF"></path>
                        <path d="M136.985345,67.9212437 C141.923806,70.8201447 150.673623,73.5578736 150.673623,73.5578736 C150.495601,74.1402912 150.247982,74.7626355 149.945417,75.4128186 C143.081315,74.0428553 138.045418,70.8120861 136.392304,69.6432217 C136.785711,68.5875441 136.985345,67.9212437 136.985345,67.9212437" id="path186" fill="#FFFFFF"></path>
                        <path d="M143.212451,68.5120862 C143.212451,68.5120862 141.279117,65.8278372 140.903659,64.5395588 C140.903659,64.5395588 142.35311,60.5135516 144.821974,60.7820498 C144.821974,60.7820498 146.030399,59.9260058 146.569227,58.0197788 C147.506223,58.5827824 148.526736,58.4201451 148.526736,58.4201451 C148.955674,55.8435883 148.150179,56.1655664 148.150179,56.1655664 C148.47289,56.8633685 148.0967,57.6684967 148.0967,57.6684967 C147.513549,57.6684967 147.030033,57.4340645 146.736626,57.2483502 C146.812451,56.7622696 146.844685,56.2241744 146.808055,55.6289363 C146.808055,55.6289363 148.580216,54.877288 149.653476,56.1655664 C149.653476,56.1655664 150.351645,59.6007311 148.257505,62.1776541 C148.257505,62.1776541 147.506223,64.3249068 149.706956,64.5930387 C149.706956,64.5930387 148.687542,63.1439545 149.814282,62.1776541 C149.814282,62.1776541 152.498531,62.9289362 155.1293,62.9289362 C155.1293,62.9289362 155.021974,63.5197786 153.840655,63.5732585 C153.840655,63.5732585 156.041388,64.8619031 161.302194,60.7820498 C161.302194,60.7820498 162.536992,60.8893758 162.85897,61.909156 C162.85897,61.909156 162.45604,62.37509 161.725637,62.9802182 C161.537359,62.8549435 161.299996,62.6670314 161.164831,62.4454197 C161.363,62.2325992 161.850179,61.7432219 162.179117,61.6802182 C162.179117,61.6802182 161.294868,61.2183135 160.470692,62.5849801 C160.470692,62.5849801 160.769593,63.1274709 161.222707,63.3765552 C160.030033,64.2703281 158.240655,65.2988995 156.041388,65.6131852 C156.041388,65.6131852 156.095234,65.1838812 155.71941,65.0765551 C155.71941,65.0765551 153.626003,66.0424892 151.263732,66.3109874 C148.902194,66.5794855 149.277652,67.5992657 149.277652,67.5992657 C149.277652,67.5992657 149.706956,67.0626357 151.156406,66.9553097 C152.605857,66.8479837 154.484612,66.6329654 155.290106,66.2036613 C155.290106,66.2036613 154.967762,67.2772877 154.109154,67.9212437 C154.109154,67.9212437 150.566297,68.2432217 147.238092,70.0688627 C147.238092,70.0688627 143.802561,68.9948701 143.212451,68.5120862" id="path188" fill="#BF9206"></path>
                        <path d="M131.684612,98.7355287 C131.684612,98.7355287 132.690473,99.7413894 133.092671,100.596701 C133.092671,100.596701 128.465198,99.8930378 124.843587,98.7860781 C124.843587,98.7860781 129.420876,98.132232 131.684612,98.7355287" id="path190" fill="#FFFFFF"></path>
                        <path d="M122.982781,96.7238071 C126.051279,94.9131844 134.501462,95.2651991 134.501462,95.2651991 C134.098531,96.0194115 132.791572,96.7743566 132.791572,96.7743566 C128.968129,95.9695947 122.982781,96.7238071 122.982781,96.7238071" id="path192" fill="#FFFFFF"></path>
                        <path d="M126.50366,93.7058585 C123.607323,93.891939 120.905125,95.2003639 119.687543,95.8732577 C119.271792,95.6575068 118.865565,95.5241734 118.521975,95.4435874 C120.767763,94.3802174 122.379118,93.1021955 122.379118,93.1021955 C121.222341,92.0461515 120.518312,89.530767 120.518312,89.530767 C123.234063,90.3860783 126.50366,93.7058585 126.50366,93.7058585" id="path194" fill="#FFFFFF"></path>
                        <path d="M101.790474,85.1769209 C100.711353,86.1124521 100.470327,87.4062249 100.470327,87.4062249 C98.8875433,85.1604374 95.473624,83.4124521 95.473624,83.4124521 C86.5461517,83.1963349 81.7362617,85.4153825 81.7362617,85.4153825 C81.1747232,74.2366282 89.3934044,71.4289359 89.3934044,71.4289359 C93.1194116,74.3897417 101.790474,85.1769209 101.790474,85.1769209" id="path196" fill="#FFFFFF"></path>
                        <path d="M89.3670307,113.468862 C88.4556754,113.929667 88.0996315,114.799265 87.9641004,115.31355 C84.635529,116.69084 81.6087892,114.975821 81.6087892,114.975821 C84.8131847,111.415382 89.3670307,113.468862 89.3670307,113.468862" id="path198" fill="#BF9206"></path>
                        <path d="M77.1490823,111.424906 C80.662269,111.534063 81.8754558,112.628202 82.2589723,113.161169 C81.4358954,113.63736 80.9186793,114.137726 80.6014632,114.538459 C77.1589724,114.67692 76.1131849,113.453843 75.7963351,112.715382 C76.5069578,112.418679 76.9318662,111.828935 77.1490823,111.424906" id="path200" fill="#BF9206"></path>
                        <path d="M73.3179469,112.812818 C73.6743571,112.928569 74.2578736,113.069594 74.9831483,112.975455 C74.8805842,113.509887 74.4051263,114.787543 72.2135513,114.817213 C72.4879103,114.602928 73.2410238,113.916114 73.3179469,112.812818" id="path202" fill="#BF9206"></path>
                        <path d="M70.0219763,111.973257 C70.539925,112.305858 71.3230751,112.685345 72.1432216,112.643953 C71.8868114,113.352378 71.2479836,114.670693 69.9388261,115.132964 C69.9388261,115.132964 68.0600716,115.29377 67.9260056,114.24725 C67.9260056,114.24725 69.4824158,113.415748 70.0219763,111.973257" id="path204" fill="#BF9206"></path>
                        <path d="M66.722709,115.1304 C64.4633684,114.880217 64.033698,113.374722 63.9619032,112.626737 C64.9087896,113.316847 65.9333317,113.739924 66.5586064,113.956774 C66.5344306,114.438825 66.6369947,114.867763 66.722709,115.1304" id="path206" fill="#BF9206"></path>
                        <path d="M70.2608041,108.127836 C67.7380935,109.254942 69.5095221,111.079851 69.5095221,111.079851 C66.8252731,110.919045 66.503295,108.61062 66.503295,108.61062 C67.8992657,107.376554 70.2608041,108.127836 70.2608041,108.127836" id="path208" fill="#BF9206"></path>
                        <path d="M70.3681301,110.704027 C70.3681301,110.704027 69.5095221,108.771792 70.9589726,108.55714 C72.4080568,108.342488 76.5417563,110.758239 76.5417563,110.758239 C76.5417563,110.758239 75.1996318,113.28095 70.3681301,110.704027" id="path210" fill="#BF9206"></path>
                        <path d="M67.0402914,106.732232 C67.0402914,106.732232 68.3820496,105.121609 70.3150166,105.282415 C72.2472509,105.443587 72.9988993,107.644686 72.9988993,107.644686 C72.0325989,107.000364 70.7439543,107.430034 70.7439543,107.430034 C69.1336979,106.034063 67.0402914,106.732232 67.0402914,106.732232" id="path212" fill="#FFFFFF"></path>
                        <path d="M27.961318,63.7879105 C27.961318,63.7879105 30.4306952,68.1897419 32.1480212,69.4780202 C32.1480212,69.4780202 33.1145413,64.2175808 38.3750906,64.2175808 C38.3750906,64.2175808 33.4364827,66.4717932 34.295457,71.9476172 C35.1542482,77.4227087 36.5500357,75.812086 36.8721603,75.597434 C36.8721603,75.597434 37.7307683,80.7509137 39.556043,79.6772874 C39.556043,79.6772874 40.5223433,84.2937708 42.132966,83.0054924 C42.132966,83.0054924 43.5285703,88.0512799 45.2461527,87.1926718 C45.2461527,87.1926718 47.7153834,92.3457852 48.8967021,91.0571406 C48.8967021,91.0571406 50.9362625,95.4593383 52.3318668,93.9564079 C52.3318668,93.9564079 54.1571415,99.0021953 55.6600719,97.1772869 C55.6600719,97.1772869 57.2703282,101.471426 58.8809509,99.8611697 C58.8809509,99.8611697 60.9208776,104.047983 62.1018299,102.3304 C62.1018299,102.3304 62.5534783,103.00073 64.1930387,103.659338 C66.2670313,101.850547 69.6238078,101.704027 72.1399249,103.135529 C75.253478,104.906957 75.253478,107.268862 75.253478,107.268862 C74.6087893,106.732232 73.9113535,107.000364 73.9113535,107.000364 C71.6190458,103.084247 66.0201449,103.725638 64.9465185,106.732232 C63.8732585,109.737726 66.0201449,112.046151 66.0201449,112.046151 C64.0794856,111.79084 61.5586065,108.765565 62.7512805,105.698532 C60.0252732,103.857507 44.6736253,93.0435874 32.8999259,75.382782 C31.1821604,72.8062253 30.2160432,69.1560422 27.7464096,71.5179469 C27.7464096,71.5179469 28.3905854,71.3032949 29.1421971,71.9476172 C29.1421971,71.9476172 15.5075088,82.3611701 23.2373254,98.679851 C23.2373254,98.679851 15.3954941,92.4630014 21.305091,79.4626354 C23.4519408,74.738826 27.961318,69.6926723 27.961318,63.7879105" id="path214" fill="#BF9206"></path>
                        <path d="M36.6575082,68.5120862 C36.6575082,68.5120862 39.556043,64.2175808 48.8967021,64.1102548 C58.2366286,64.0025625 64.6783867,69.2633682 64.6783867,69.2633682 C64.6783867,69.2633682 54.4791195,68.6194122 50.7216105,69.7999983 C50.7216105,69.7999983 55.6600719,67.2234415 60.4912073,67.9750899 C60.4912073,67.9750899 48.3597058,62.3926724 37.6234423,70.0146503 C37.6234423,70.0146503 36.8721603,69.2633682 36.6575082,68.5120862" id="path216" fill="#BF9206"></path>
                        <path d="M58.5472513,103.987543 C57.0197788,105.201096 55.3084235,106.421609 53.4054932,107.59084 C53.4054932,107.59084 52.7615371,108.342488 51.4732588,106.624906 C51.4732588,106.624906 53.8780206,105.043953 56.8571414,102.676921 C57.4582403,103.152745 58.0238081,103.590107 58.5472513,103.987543" id="path218" fill="#BF9206"></path>
                        <path d="M61.3406578,101.561902 C61.0212439,101.294137 60.5362622,100.638093 60.1304014,99.9256385 C62.6999984,97.6289353 65.2249068,94.9952357 66.717947,92.4531112 C66.717947,92.4531112 67.2549434,93.6340636 68.436262,93.4194116 C68.436262,93.4194116 63.2772878,99.8465177 61.3406578,101.561902" id="path220" fill="#BF9206"></path>
                        <path d="M54.9150169,114.664466 C55.5923063,113.101096 55.3315004,112.215382 55.3315004,112.215382 C56.5230755,110.945052 58.0457861,110.642488 58.7036615,110.570693 C58.8747238,111.475089 58.7186799,112.424173 58.7186799,112.424173 C57.72857,114.925272 54.9150169,114.664466 54.9150169,114.664466" id="path222" fill="#BF9206"></path>
                        <path d="M62.4490827,110.716114 C61.8695955,111.267763 60.8959692,111.99377 59.8703282,111.878752 C59.9684967,111.295235 60.0043941,110.521975 59.5721597,109.646884 C59.9956029,109.27399 60.7315003,108.753843 61.5978007,108.683147 C61.7633684,109.2641 62.0355296,110.034796 62.4490827,110.716114" id="path224" fill="#BF9206"></path>
                        <path d="M50.6937716,117.842854 C49.286812,117.999264 49.8604383,116.071426 49.8604383,116.071426 C51.4234419,115.96703 51.7882771,114.299631 51.7882771,114.299631 C52.4860793,113.671426 53.3322331,113.487543 53.8161159,113.434063 C54.099266,114.175455 53.9732587,115.005492 53.7952368,115.61355 C53.0267386,116.704026 51.6915738,117.732598 50.6937716,117.842854" id="path226" fill="#BF9206"></path>
                        <path d="M42.8776546,118.155675 C42.8776546,118.155675 45.1930392,117.902195 45.8124531,115.996334 C46.4216106,115.730766 47.6117204,115.422341 48.9747241,116.175821 C48.9747241,116.175821 47.1505483,120.343953 42.8776546,118.155675" id="path228" fill="#BF9206"></path>
                        <path d="M38.9695961,116.644686 C40.7410246,116.12344 40.2725265,115.133697 40.2725265,115.133697 C39.4904752,116.279851 37.4586071,115.96703 37.4586071,115.96703 C37.3542115,113.778752 39.334065,113.413917 39.334065,113.413917 C40.4805851,113.726371 40.7934056,114.768862 40.7934056,114.768862 C43.2424898,114.091206 44.7908414,115.6641 44.7908414,115.6641 C42.7963359,118.696334 38.9695961,116.644686 38.9695961,116.644686" id="path230" fill="#BF9206"></path>
                        <path d="M116.858239,133.49377 C116.215015,133.058605 115.190473,132.457506 114.326737,132.371059 C114.326737,132.371059 113.653111,131.360803 113.0304,130.658605 C113.093404,130.691572 114.115748,131.214282 115.729667,131.795601 C116.124906,132.271425 116.586078,132.895601 116.858239,133.49377" id="path232" fill="#FFFFFF"></path>
                        <path d="M126.275821,133.263733 C126.275821,133.263733 124.215015,134.980949 123.5967,135.254942 C123.5967,135.254942 120.301462,135.118312 118.172158,134.225271 C118.172158,134.225271 117.958971,133.377652 117.485345,132.36703 C119.925272,133.078385 123.091572,133.657506 126.275821,133.263733" id="path234" fill="#FFFFFF"></path>
                        <path d="M122.3304,112.565565 C122.3304,112.565565 125.443953,110.525272 127.806224,110.239191 C127.806224,110.239191 127.912817,110.596701 128.19963,111.026371 C128.19963,111.026371 125.121975,113.209155 122.3304,112.565565" id="path236" fill="#FFFFFF"></path>
                        <path d="M86.5798513,118.315015 C86.5798513,118.315015 88.4047597,117.790107 89.4245399,117.038459 C89.4245399,117.038459 92.4567742,117.584246 94.7608035,115.683147 C94.7608035,115.683147 98.410254,116.478385 101.101463,113.519777 C101.101463,113.519777 103.650547,112.836261 104.473257,110.946884 C104.473257,110.946884 106.942122,110.294136 107.228202,108.56703 L108.038093,108.489741 L108.47399,107.80769 C108.639191,107.98388 108.870327,108.211719 109.129301,108.41758 C108.738825,109.706224 108.199265,113.079484 111.809155,116.227836 C111.809155,116.227836 97.7988987,119.429667 86.5798513,118.315015" id="path238" fill="#FFFFFF"></path>
                        <path d="M156.279117,21.8967394 L38.2325998,21.8916112 C36.7216108,21.8916112 35.2946145,21.3578749 33.9882409,20.3029299 C33.0598893,19.5487175 32.1379845,18.4531131 31.6250175,16.5018311 C30.1333692,9.55571405 30.1015743,9.571758 30.1015743,8.84216095 C30.1015743,5.88571414 32.1047977,2.76370689 35.8421969,2.76370689 L153.888641,2.63736257 C155.732231,2.63736257 159.248714,3.65012445 160.4956,8.02714266 L161.845783,14.3051645 C162.686443,18.6761534 159.967029,21.8967394 156.279117,21.8967394" id="path240" fill="#8E0A26"></path>
                        <path d="M52.3355298,12.8667396 L48.9300354,12.8667396 L49.3120867,14.6827835 C49.3586068,14.9036993 49.4021966,15.1263366 49.4230757,15.3517212 C49.4549438,15.6955307 49.4377277,15.9223439 48.8641013,15.8704025 C48.6732589,15.8530765 48.4879109,15.7805491 48.3838816,15.6116846 C48.1571417,15.2425271 48.1047607,14.7715015 48.0164823,14.3505491 C47.7992662,13.3194502 47.5824164,12.2875089 47.3655666,11.256007 C47.2586069,10.7483514 47.1516472,10.2406591 47.0450538,9.73256386 C46.9747241,9.39633676 46.7153834,8.60732579 47.2402919,8.51761883 C47.8699622,8.41058587 48.0249072,8.77948696 48.1732589,9.32963347 C48.3351636,9.92860781 48.4421233,10.545714 48.5695959,11.1524173 L51.974724,11.1524173 L51.8901086,10.7476188 C51.7183137,9.93003638 51.5322331,8.97293018 51.0142844,8.29010968 C50.4534786,7.5512086 49.4824163,7.10996319 48.6010977,6.90146503 C47.6036618,6.66622694 46.4897424,6.65967016 45.4901088,6.89230752 C44.6919403,7.07761887 43.8205117,7.51688626 43.6600722,8.39930382 C43.4776546,9.4033331 43.7934055,10.4626005 44.0003652,11.4457506 C44.1600722,12.2069594 44.3201454,12.9681682 44.4802187,13.7292671 C44.6703286,14.6336993 44.8424897,15.5963732 45.5018304,16.2879117 C46.2113542,17.0326736 47.2080574,17.4220142 48.2109878,17.5706955 C49.1985336,17.7179116 50.3080574,17.7003292 51.2556764,17.354212 C52.0684969,17.057875 52.693039,16.5597798 52.7421232,15.6337359 C52.7912075,14.7043952 52.5256397,13.7700363 52.3355298,12.8667396" id="path242" fill="#FFFFFF"></path>
                        <path d="M69.8571411,13.080659 C69.9600715,13.5695601 70.05824,14.0607689 70.1384598,14.555018 C70.1930385,14.8919776 70.2593389,15.2469593 70.2358957,15.5893769 C70.1637345,16.6286076 69.2644671,17.2483146 68.3347968,17.4831131 C67.3212437,17.7395234 66.1794855,17.7066296 65.1717932,17.4377651 C64.2164819,17.183223 63.2890094,16.6472157 62.7736248,15.7776553 C62.5670314,15.429267 62.460438,15.0344685 62.3578739,14.6461535 C62.2208776,14.1281681 62.105493,13.604322 61.9952365,13.080659 C61.767764,11.9974722 61.5157494,10.915018 61.3388263,9.82271038 C61.2838813,9.48461515 61.2175809,9.12890087 61.2406578,8.78534777 C61.2732585,8.305128 61.5084234,7.85314999 61.8600717,7.52860787 C62.5893757,6.85567748 63.71172,6.7270328 64.6604379,6.73476174 C65.9578738,6.74578738 67.3391925,7.07260056 68.2681302,8.03556756 C68.6586063,8.44065913 68.8860789,8.91212432 69.0402913,9.44655654 C69.2161155,10.0538093 69.350914,10.6732232 69.4809506,11.292344 L69.8571411,13.080659 M65.7871778,9.92230744 C65.7201449,9.60150159 65.6505478,9.27611698 65.5406577,8.96633677 C65.4501815,8.71179465 65.3025625,8.52520125 65.0120863,8.50688623 C64.7315002,8.48945034 64.5549434,8.60032946 64.5673977,8.88465179 C64.5813171,9.20659318 64.6538445,9.52897412 64.7197786,9.84318657 C65.0626357,11.471062 65.404394,13.0985345 65.7472511,14.7267029 C65.8282035,15.113626 65.8978006,15.7457505 66.3641009,15.8568128 C66.5846137,15.9091571 66.8824159,15.8704025 66.9080569,15.5996699 C66.9347969,15.3157872 66.8575075,15.0110253 66.799632,14.7351645 L65.7871778,9.92230744" id="path244" fill="#FFFFFF"></path>
                        <polyline id="path246" fill="#FFFFFF" points="83.9406572 17.417582 82.1824155 9.05750893 84.2454191 9.05750893 83.8047598 6.96300349 78.3366281 6.96300349 80.5351628 17.417582 83.9406572 17.417582"></polyline>
                        <polyline id="path248" fill="#FFFFFF" points="98.724906 17.417582 96.9670305 9.05750893 99.0296679 9.05750893 98.5893748 6.96300349 93.1208768 6.96300349 95.3194115 17.417582 98.724906 17.417582"></polyline>
                        <polyline id="path250" fill="#FFFFFF" points="110.10366 17.417582 115.766297 17.417582 115.326371 15.3230765 113.068495 15.3230765 112.648349 13.3234429 114.768862 13.3234429 114.353477 11.3428569 112.232232 11.3428569 111.751279 9.05750893 114.242488 9.05750893 113.801829 6.96300349 107.905126 6.96300349 110.10366 17.417582"></polyline>
                        <path d="M132.464466,13.5706956 L129.058971,13.5706956 L129.258605,14.520952 C129.330033,14.8619044 129.458239,15.2784612 129.403293,15.6307322 C129.34322,16.0197798 128.678385,15.9037359 128.511718,15.6630765 C128.274356,15.3223806 128.236261,14.8410253 128.152011,14.4380949 C127.937359,13.4168861 127.721975,12.3959704 127.507323,11.3747616 C127.387176,10.8011353 127.266297,10.2270693 127.145418,9.65344298 C127.078751,9.33622687 126.84322,8.58388257 127.349081,8.51274704 C127.923806,8.43190455 128.134063,8.89923055 128.261169,9.36556753 C128.407323,9.90227081 128.501096,10.4560071 128.615381,11.0003294 L127.934429,11.0003294 L128.26703,12.5805491 L132.256407,12.5805491 L131.075088,6.96300349 L128.928935,6.96300349 L128.769228,7.70589724 C128.037359,6.91934049 126.982048,6.63219764 125.93333,6.76597053 C124.97692,6.88831485 123.974356,7.42230751 123.73333,8.42347964 C123.566664,9.11644666 123.797067,9.92388254 123.939557,10.6025272 C124.032964,11.0469594 124.126004,11.4912451 124.219777,11.9355308 C124.339924,12.506996 124.46007,13.0787909 124.580583,13.6501095 C124.684246,14.1450546 124.801462,14.6388641 124.957506,15.1201828 C125.067762,15.4600362 125.192671,15.8128567 125.408055,16.1019044 C125.962634,16.8439556 126.936993,17.3006955 127.82051,17.498571 C128.805858,17.7190472 129.916847,17.723516 130.893403,17.4527834 C131.666663,17.2377285 132.55311,16.7326369 132.697066,15.8713915 C132.82344,15.106593 132.621242,14.3169227 132.464466,13.5706956" id="path252" fill="#FFFFFF"></path>
                        <polyline id="path254" fill="#FFFFFF" points="143.080583 17.417582 148.74322 17.417582 148.303293 15.3230765 146.04615 15.3230765 145.625637 13.3234429 147.746883 13.3234429 147.330399 11.3428569 145.209154 11.3428569 144.728202 9.05750893 147.21941 9.05750893 146.778751 6.96300349 140.882048 6.96300349 143.080583 17.417582"></polyline>
                        <path d="M165.502194,21.8967394 L165.61245,20.4179482 L166.291571,21.8967394 L167.196333,21.8967394 L166.697065,19.3289372 L166.119043,19.3289372 L166.479483,21.1857504 L165.645417,19.3289372 L165.150179,19.3289372 L165.036626,21.17945 L164.676553,19.3289372 L164.098531,19.3289372 L164.597432,21.8967394 L165.502194,21.8967394 Z M162.348714,21.278754 L162.468128,21.8967394 L164.403293,21.8967394 L164.283146,21.278754 L163.630765,21.278754 L163.251644,19.3289372 L162.610619,19.3289372 L162.98974,21.278754 L162.348714,21.278754 L162.348714,21.278754 Z" id="path256" fill="#8E0A26"></path>
                    </g>
                </g>
            </g>
        </g>
    </g>
</svg>